<?xml version="1.0" encoding="UTF-8" standalone="no"?>
<!-- Created with Inkscape (http://www.inkscape.org/) -->

<svg
   width="132.30214mm"
   height="107.12905mm"
   viewBox="0 0 132.30214 107.12905"
   version="1.1"
   id="svg1"
   xml:space="preserve"
   inkscape:version="1.4 (86a8ad7, 2024-10-11)"
   sodipodi:docname="arquivos.svg"
   xmlns:inkscape="http://www.inkscape.org/namespaces/inkscape"
   xmlns:sodipodi="http://sodipodi.sourceforge.net/DTD/sodipodi-0.dtd"
   xmlns="http://www.w3.org/2000/svg"
   xmlns:svg="http://www.w3.org/2000/svg"><sodipodi:namedview
     id="namedview1"
     pagecolor="#ffffff"
     bordercolor="#000000"
     borderopacity="0.25"
     inkscape:showpageshadow="2"
     inkscape:pageopacity="0.0"
     inkscape:pagecheckerboard="0"
     inkscape:deskcolor="#d1d1d1"
     inkscape:document-units="mm"
     showguides="true"
     inkscape:zoom="0.31937079"
     inkscape:cx="-15.655784"
     inkscape:cy="164.38573"
     inkscape:window-width="1280"
     inkscape:window-height="961"
     inkscape:window-x="-8"
     inkscape:window-y="-8"
     inkscape:window-maximized="1"
     inkscape:current-layer="layer5"><inkscape:page
       x="0"
       y="-2.2498975e-13"
       width="132.30214"
       height="107.12904"
       id="page2"
       margin="0"
       bleed="0" /></sodipodi:namedview><defs
     id="defs1" /><g
     inkscape:groupmode="layer"
     id="layer5"
     inkscape:label="vetor"
     transform="translate(195.24981,-25.240188)"><g
       id="g11"
       inkscape:export-filename="..\_sslares\assets\img\logo.png"
       inkscape:export-xdpi="96"
       inkscape:export-ydpi="96"><path
         style="display:inline;fill:#ed0132;fill-opacity:1;stroke:#ed0132;stroke-width:0.264583;stroke-linecap:square;stroke-opacity:1"
         d="m -195.01089,80.52168 15.11924,-23.86977 0.0259,-0.0518 -0.0518,-14.31669 -1.63101,-0.18122 1.63101,-2.40769 h 4.03871 l 0.0397,20.16464 1.17161,-11.86253 13.92624,-22.50451 33.93562,55.15378 -9.59986,-0.033 -24.33578,-40.90003 -24.85355,40.90003 z"
         id="path2"
         sodipodi:nodetypes="ccccccccccccccc" /><g
         id="g9"
         transform="translate(-196.3431,188.88703)"><rect
           style="fill:#000000;fill-opacity:1;stroke:none;stroke-width:0.264583;stroke-linecap:square;stroke-linejoin:miter;stroke-dasharray:none;stroke-opacity:1"
           id="rect5"
           width="2.5371339"
           height="4.6988697"
           x="32.230328"
           y="-128.29088" /><rect
           style="fill:#000000;fill-opacity:1;stroke:none;stroke-width:0.264583;stroke-linecap:square;stroke-linejoin:miter;stroke-dasharray:none;stroke-opacity:1"
           id="rect6"
           width="2.5371339"
           height="4.6988697"
           x="36.450249"
           y="-128.29088" /><rect
           style="fill:#000000;fill-opacity:1;stroke:none;stroke-width:0.264583;stroke-linecap:square;stroke-linejoin:miter;stroke-dasharray:none;stroke-opacity:1"
           id="rect7"
           width="2.5371339"
           height="4.6988697"
           x="32.230328"
           y="-121.19727" /><rect
           style="fill:#000000;fill-opacity:1;stroke:none;stroke-width:0.264583;stroke-linecap:square;stroke-linejoin:miter;stroke-dasharray:none;stroke-opacity:1"
           id="rect8"
           width="2.5371339"
           height="4.6988697"
           x="36.450249"
           y="-121.19727" /></g><text
         xml:space="preserve"
         style="font-style:normal;font-variant:normal;font-weight:normal;font-stretch:normal;font-size:61.1128px;line-height:67;font-family:'Bebas Neue';-inkscape-font-specification:'Bebas Neue';text-align:center;letter-spacing:0.424394px;writing-mode:lr-tb;direction:ltr;text-anchor:middle;fill:#ed0132;fill-opacity:1;stroke-width:0.29059;stroke-linecap:square"
         x="-191.37123"
         y="119.55958"
         id="text9"
         transform="scale(0.90784473,1.1015099)"><tspan
           sodipodi:role="line"
           id="tspan9"
           style="font-size:61.1128px;fill:#ed0132;fill-opacity:1;stroke-width:0.29059"
           x="-191.15903"
           y="119.55958">SS</tspan></text><text
         xml:space="preserve"
         style="font-style:normal;font-variant:normal;font-weight:normal;font-stretch:normal;font-size:54.81px;line-height:67;font-family:'Bebas Neue';-inkscape-font-specification:'Bebas Neue';text-align:center;letter-spacing:0.380623px;writing-mode:lr-tb;direction:ltr;text-anchor:middle;fill:#ed0132;fill-opacity:1;stroke-width:0.290592;stroke-linecap:square"
         x="-127.10763"
         y="108.62521"
         id="text10"
         transform="scale(0.83061809,1.2039227)"><tspan
           sodipodi:role="line"
           id="tspan10"
           style="fill:#ed0132;fill-opacity:1;stroke-width:0.290592"
           x="-126.91731"
           y="108.62521">LARES</tspan></text><path
         style="fill:none;fill-opacity:1;stroke:none;stroke-width:0.290591;stroke-linecap:square;stroke-opacity:1"
         d="m -193.81355,78.55508 c 0.006,-0.2003 0.99231,-1.66472 1.11363,-1.65487 0.0656,0.005 0.12101,0.15164 0.12329,0.32516 0.006,0.5181 0.29627,0.45636 0.49985,-0.10661 0.12951,-0.35818 0.25736,-0.49942 0.40186,-0.44397 0.11945,0.0458 0.25295,-0.0256 0.30595,-0.16371 0.0517,-0.13477 0.0187,-0.27017 -0.0735,-0.30088 -0.1248,-0.0416 -0.1236,-0.12616 0.005,-0.33164 0.0947,-0.15168 0.11628,-0.32821 0.0479,-0.39229 -0.0684,-0.0641 -0.15499,-0.0304 -0.19247,0.0748 -0.10705,0.30064 -0.68754,0.78981 -0.74229,0.62554 -0.0924,-0.27733 0.47959,-0.88062 0.85052,-0.897 0.20137,-0.009 0.28375,-0.0494 0.18306,-0.0901 -0.10068,-0.0406 -0.18306,-0.17354 -0.18306,-0.29535 0,-0.2956 0.57716,-1.0948 0.72476,-1.00357 0.0641,0.0396 0.15477,-0.16345 0.20148,-0.45125 0.0467,-0.28781 0.25283,-0.74342 0.45804,-1.01248 0.20522,-0.26905 0.3785,-0.57597 0.38508,-0.68203 0.006,-0.10606 0.10561,0.0213 0.22009,0.28313 0.11449,0.26179 0.26997,0.47597 0.34554,0.47597 0.25483,0 0.2931,-0.24796 0.0814,-0.52762 -0.29024,-0.38345 -0.27026,-0.69924 0.0634,-1.00118 0.15566,-0.14087 0.246,-0.35263 0.20074,-0.47056 -0.0596,-0.15551 0.0135,-0.20584 0.26616,-0.18314 0.57332,0.0514 0.86104,-0.005 0.86104,-0.16936 0,-0.0853 -0.0603,-0.11784 -0.13394,-0.0723 -0.0737,0.0455 -0.16732,-1e-5 -0.20812,-0.1012 -0.0589,-0.1462 -0.0766,-0.14639 -0.0858,-7.9e-4 -0.0166,0.26185 -0.30446,0.22722 -0.30446,-0.0367 0,-0.12083 0.0988,-0.21968 0.21967,-0.21968 0.12082,0 0.21968,-0.0988 0.21968,-0.21967 0,-0.12083 0.0659,-0.21968 0.14645,-0.21968 0.0806,0 0.14645,-0.13508 0.14645,-0.30018 0,-0.41756 0.42192,-1.19239 0.59204,-1.08725 0.0771,0.0476 0.14022,-0.0616 0.14022,-0.24288 0,-0.32063 0.006,-0.32185 0.20921,-0.0453 0.20704,0.28132 0.21036,0.28132 0.31925,1.5e-4 0.0683,-0.17642 0.0445,-0.30596 -0.0627,-0.34172 -0.24505,-0.0817 -0.21441,-0.42525 0.0469,-0.52551 0.12082,-0.0463 0.21968,-0.0157 0.21968,0.0683 0,0.084 0.11532,0.13038 0.25629,0.10323 0.35445,-0.0683 0.32355,-0.48313 -0.0366,-0.49153 -0.32856,-0.007 -0.32291,-0.21205 0.0203,-0.73591 0.27701,-0.42277 0.5709,-0.48337 0.35094,-0.0724 -0.23906,0.44669 -0.19438,0.70099 0.0757,0.4309 0.12502,-0.12502 0.25175,-0.49427 0.28161,-0.82056 0.0601,-0.65626 0.47167,-1.5491 0.94504,-2.04999 0.16931,-0.17916 0.37615,-0.47572 0.45964,-0.65903 0.0835,-0.18331 0.31184,-0.5969 0.50746,-0.91909 0.19562,-0.32219 0.39539,-0.66402 0.44394,-0.75962 0.0485,-0.0956 0.17891,-0.13903 0.28969,-0.0965 0.13145,0.0504 0.23465,-0.0672 0.29709,-0.33876 0.14014,-0.60952 0.7837,-1.92573 0.78996,-1.61564 0.003,0.14981 0.0733,0.22292 0.16179,0.16826 0.086,-0.0532 0.12413,-0.18085 0.0847,-0.2837 -0.0395,-0.10286 0.002,-0.26095 0.0925,-0.35132 0.0903,-0.0904 0.11499,-0.16428 0.0547,-0.16428 -0.083,0 0.53526,-1.02175 0.87664,-1.44877 0.0252,-0.0316 0.1464,0.0259 0.26917,0.12777 0.19561,0.16234 0.22376,0.0789 0.22767,-0.67477 0.004,-0.7132 0.0328,-0.81113 0.17058,-0.57362 0.16487,0.28424 0.16697,0.28424 0.27815,0 0.18323,-0.46845 0.14721,-0.79898 -0.087,-0.79898 -0.19166,0 -0.21968,-0.75762 -0.21968,-5.93991 0,-3.95042 0.0494,-5.90938 0.14749,-5.84876 0.26222,0.16207 0.32505,-0.3431 0.0852,-0.68546 -0.32153,-0.45904 -0.29389,-1.03717 0.0602,-1.25828 0.18686,-0.1167 0.2929,-0.34153 0.2929,-0.62103 0,-0.41742 -0.1139,-0.50744 -0.56388,-0.44567 -0.10878,0.0149 -0.15478,-0.0424 -0.10223,-0.12742 0.0566,-0.0916 0.009,-0.12138 -0.11695,-0.073 -0.31276,0.12001 -0.45844,-0.22421 -0.20299,-0.47965 0.17001,-0.17002 0.6163,-0.2224 1.9578,-0.2298 l 1.73759,-0.01 0.0434,6.79753 c 0.0384,6.01123 -0.0426,8.94338 -0.22541,8.1522 -0.0326,-0.14096 -0.13675,-0.25594 -0.23153,-0.25551 -0.10979,5.3e-4 -0.18841,0.34593 -0.21663,0.95193 -0.045,0.96582 0.15101,1.28207 0.39156,0.6318 0.10966,-0.29644 0.12463,-0.28689 0.20859,0.13297 0.0497,0.24878 0.032,0.6561 -0.0394,0.90516 -0.0715,0.24906 -0.0771,0.45283 -0.0126,0.45283 0.0646,0 0.16205,0.39542 0.21673,0.87871 0.10561,0.9335 0.30958,1.14077 0.4684,0.47596 0.0529,-0.2215 0.15213,-0.47432 0.22049,-0.5618 0.11075,-0.14177 0.35537,-2.05703 0.46601,-3.64866 0.032,-0.45951 0.0946,-0.57653 0.29082,-0.54277 0.13756,0.0237 0.25011,-0.0212 0.25011,-0.0996 0,-0.0785 0.14312,-0.16375 0.31804,-0.18949 0.17493,-0.0257 0.3447,-0.12774 0.37727,-0.22668 0.042,-0.12762 -0.1142,-0.16518 -0.53771,-0.12927 -0.32832,0.0278 -0.59695,-0.007 -0.59695,-0.0764 0,-0.0699 0.0989,-0.12702 0.21968,-0.12702 0.13521,0 0.21314,-0.12669 0.20269,-0.32951 -0.0128,-0.24797 -0.0336,-0.26609 -0.084,-0.0732 -0.0825,0.31557 -0.33841,0.33978 -0.33841,0.032 0,-0.12335 0.0989,-0.26221 0.21969,-0.30857 0.12082,-0.0464 0.21967,-0.17886 0.21967,-0.29443 0,-0.11558 0.13181,-0.35161 0.2929,-0.52453 0.24664,-0.26474 0.2929,-0.51683 0.2929,-1.59619 0,-0.79381 -0.0629,-1.32069 -0.16526,-1.38394 -0.11356,-0.0702 -0.0925,-0.14282 0.0672,-0.23219 0.12782,-0.0715 0.19846,-0.21851 0.15697,-0.32662 -0.0439,-0.11445 0.0503,-0.22945 0.22577,-0.27531 0.3073,-0.0804 0.43684,-0.67503 0.15472,-0.7103 l -0.29289,-0.0366 c -0.2503,-0.0313 -0.23061,-0.15802 0.0873,-0.56221 0.28105,-0.3573 0.32675,-0.37054 0.54066,-0.15662 0.21392,0.21391 0.24195,0.20063 0.33176,-0.15722 0.0584,-0.23256 0.026,-0.47774 -0.0798,-0.6053 -0.14412,-0.17365 -0.0985,-0.32197 0.23994,-0.78015 0.22983,-0.31115 0.50026,-0.53783 0.60094,-0.50374 0.10068,0.0341 0.19067,-0.0259 0.19996,-0.13327 0.009,-0.10739 0.0322,-0.26117 0.0509,-0.34172 0.0187,-0.0806 0.0441,-0.25561 0.0564,-0.38902 0.0157,-0.17052 0.11322,-0.21881 0.32837,-0.16254 0.25195,0.0659 0.30114,0.0181 0.27817,-0.27 -0.0153,-0.19253 0.0219,-0.50807 0.0828,-0.70121 0.10507,-0.3333 0.12072,-0.33747 0.30764,-0.0819 0.18819,0.25736 0.19693,0.25582 0.19693,-0.0347 0,-0.16723 0.16475,-0.412 0.36613,-0.54395 0.38525,-0.25243 0.49301,-0.75224 0.18436,-0.85512 -0.13068,-0.0436 -0.1101,-0.13223 0.0732,-0.31557 0.14025,-0.14024 0.25499,-0.36172 0.25499,-0.49219 0,-0.20237 0.0291,-0.19753 0.19752,0.0329 0.18422,0.25195 0.20875,0.23792 0.36437,-0.2085 0.0918,-0.26325 0.13787,-0.52554 0.10244,-0.58286 -0.0354,-0.0573 0.0972,-0.42339 0.29465,-0.81348 0.3096,-0.61153 0.35907,-0.65539 0.35907,-0.31831 0,0.21502 0.0679,0.39095 0.15105,0.39095 0.083,0 0.1355,0.23066 0.11651,0.51258 -0.019,0.28192 -0.087,0.51258 -0.15104,0.51258 -0.0641,0 -0.11652,0.16475 -0.11652,0.36612 0,0.56833 0.40952,0.45444 0.522,-0.14516 0.0528,-0.28122 0.15005,-0.47785 0.2162,-0.43697 0.29051,0.17955 0.30556,-0.29346 0.0168,-0.52731 -0.17425,-0.14109 -0.33051,-0.42223 -0.34728,-0.62475 -0.0168,-0.20253 -0.0824,-0.33614 -0.14586,-0.29692 -0.0635,0.0392 -0.11537,-0.0314 -0.11537,-0.15701 0,-0.12557 0.0559,-0.22832 0.12421,-0.22832 0.0683,0 0.24227,-0.26181 0.38656,-0.58181 0.1443,-0.32 0.31907,-0.54677 0.38837,-0.50393 0.0693,0.0428 0.13047,-0.0413 0.13592,-0.18706 0.008,-0.22261 0.0349,-0.21315 0.16644,0.0592 0.11552,0.23921 0.10586,0.44649 -0.0369,0.791 -0.15581,0.37617 -0.21081,0.41712 -0.28317,0.21084 -0.0785,-0.22364 -0.11257,-0.22857 -0.26991,-0.039 -0.14967,0.18035 -0.11644,0.23298 0.19671,0.31158 0.20723,0.052 0.43966,0.0557 0.51651,0.008 0.0769,-0.0475 0.13971,0.0422 0.13971,0.19932 0,0.18257 0.13214,0.31883 0.36613,0.37756 0.2881,0.0723 0.36613,0.18492 0.36613,0.52846 0,0.48815 0.23405,0.568 0.52839,0.18027 0.32563,-0.42897 0.25456,-0.73795 -0.15186,-0.66025 -0.31306,0.0598 -0.36136,0.009 -0.40274,-0.42305 -0.0347,-0.36209 -0.11432,-0.48571 -0.30331,-0.47071 -0.2085,0.0165 -0.25628,-0.10037 -0.25628,-0.62701 0,-0.43158 -0.071,-0.67462 -0.2132,-0.72916 -0.1746,-0.067 -0.1496,-0.18256 0.13813,-0.63835 0.19323,-0.30609 0.31113,-0.59672 0.26201,-0.64585 -0.0492,-0.0491 -0.0124,-0.0893 0.0816,-0.0893 0.094,0 0.17086,-0.0722 0.17086,-0.16046 0,-0.0883 0.13639,-0.35199 0.30308,-0.58608 0.26958,-0.37859 0.3274,-0.40132 0.52304,-0.20568 0.12098,0.12098 0.28115,0.21997 0.35595,0.21997 0.0747,0 0.13599,0.0772 0.13599,0.17153 0,0.28393 0.45235,0.69299 0.67279,0.6084 0.11326,-0.0435 0.20592,-0.21092 0.20592,-0.37213 0,-0.23505 -0.0687,-0.27589 -0.34634,-0.20618 -0.31628,0.0794 -0.36685,0.0148 -0.58269,-0.7439 -0.12999,-0.45696 -0.22009,-0.84709 -0.20021,-0.86697 0.0198,-0.0199 0.23267,-0.068 0.47285,-0.10689 0.24019,-0.0389 0.45789,-0.0762 0.48379,-0.0828 0.0259,-0.007 -0.0564,-0.11547 -0.18278,-0.24189 -0.27322,-0.27322 -0.13353,-0.61987 0.42767,-1.06132 0.20189,-0.15879 0.36706,-0.39164 0.36706,-0.51743 0,-0.12579 0.16475,-0.47149 0.36613,-0.76822 0.20137,-0.29674 0.36613,-0.61685 0.36613,-0.71137 0,-0.0945 0.20503,-0.3654 0.45563,-0.60197 0.25059,-0.23658 0.62167,-0.80908 0.82462,-1.27224 0.37888,-0.86465 0.64283,-1.03554 0.90478,-0.5858 0.0821,0.14096 0.15225,0.19038 0.15589,0.10984 0.004,-0.0806 0.088,-0.007 0.18751,0.16394 0.70187,1.20424 0.73011,1.28151 0.56505,1.54582 -0.19763,0.31646 -0.21863,0.75744 -0.0305,0.64119 0.0737,-0.0455 0.16731,0 0.20811,0.10119 0.0408,0.10119 0.0794,-0.0341 0.0858,-0.30063 0.0134,-0.56092 0.18864,-0.51006 0.5181,0.15037 0.19943,0.39977 0.20266,0.48195 0.0228,0.58255 -0.25125,0.1406 -0.14178,0.70362 0.13681,0.70362 0.106,0 0.23607,0.13657 0.28905,0.30349 0.056,0.17646 0.17976,0.27148 0.29567,0.227 0.20115,-0.0772 1.2387,1.18159 1.2387,1.50283 0,0.0899 0.0659,0.16344 0.14645,0.16344 0.0806,0 0.14645,0.0729 0.14645,0.16199 0,0.0891 0.18124,0.40213 0.40274,0.69564 0.58702,0.77783 0.76887,1.144 0.76887,1.54818 0,0.19771 0.0608,0.39707 0.13519,0.44302 0.0744,0.046 0.17723,0.275 0.22862,0.50899 0.0888,0.40407 0.41747,0.67386 0.64769,0.53157 0.0585,-0.0362 0.22104,0.12839 0.3612,0.36566 0.14015,0.23726 0.20167,0.43239 0.13671,0.43363 -0.065,10e-4 -0.0193,0.065 0.10155,0.14163 0.18761,0.11904 0.17044,0.18819 -0.11766,0.47372 -0.3131,0.3103 -0.34784,0.31591 -0.48325,0.078 -0.0802,-0.14096 -0.20852,-0.25629 -0.28507,-0.25629 -0.25174,0 -0.14542,0.46288 0.20085,0.8744 l 0.34037,0.40423 0.24577,-0.30291 c 0.13518,-0.1666 0.24578,-0.38447 0.24578,-0.48415 0,-0.0997 0.0755,-0.22789 0.16769,-0.28488 0.11614,-0.0718 0.14439,0.0182 0.0919,0.29275 -0.0534,0.27915 -0.0216,0.37561 0.10737,0.32612 0.21557,-0.0827 0.51174,0.17697 0.51174,0.44869 0,0.10472 -0.13181,0.19039 -0.2929,0.19039 -0.17212,0 -0.2929,0.0976 -0.2929,0.23676 0,0.16465 0.0892,0.21343 0.2929,0.16016 0.16109,-0.0421 0.2929,-0.0169 0.2929,0.0561 0,0.073 0.1253,0.13274 0.27843,0.13274 0.27235,0 0.98539,0.95814 0.91409,1.22828 -0.0189,0.0714 0.11202,0.28563 0.29083,0.47597 0.17881,0.19033 0.2675,0.34607 0.19707,0.34607 -0.0704,0 -0.049,0.0791 0.0477,0.17574 0.0967,0.0967 0.17575,0.26948 0.17575,0.38406 0,0.16856 -0.0419,0.17352 -0.21968,0.026 -0.18831,-0.15628 -0.21968,-0.10751 -0.21968,0.34156 0,0.48579 0.0384,0.53108 0.52862,0.62304 0.35222,0.0661 0.56533,0.0398 0.63865,-0.0789 0.21879,-0.35402 0.27903,0.23987 0.066,0.65052 -0.27636,0.53268 -0.26251,0.64732 0.0678,0.56094 0.19716,-0.0516 0.25416,-0.16256 0.19975,-0.38903 -0.0872,-0.36302 0.0172,-0.27362 0.5796,0.49629 0.28311,0.38757 0.3444,0.58398 0.24029,0.77003 -0.0769,0.13737 -0.0884,0.33162 -0.0257,0.43166 0.0628,0.10005 0.0939,0.30444 0.0692,0.4542 -0.0254,0.15439 0.0192,0.23272 0.10302,0.18089 0.0813,-0.0503 0.16908,0.0527 0.19498,0.22881 0.0547,0.37194 0.41321,0.5532 0.41321,0.20891 0,-0.12753 0.0583,-0.23187 0.12961,-0.23187 0.1924,0 0.61901,0.70485 0.47899,0.79139 -0.0662,0.0409 -0.0905,0.27808 -0.054,0.527 0.0365,0.24893 0.10257,0.41644 0.14676,0.37226 0.0442,-0.0442 0.20793,0.0351 0.36388,0.17627 0.15596,0.14114 0.3243,0.25661 0.3741,0.25661 0.0498,0 0.0718,0.14317 0.0489,0.31816 -0.0337,0.25696 0.0164,0.30297 0.2602,0.23921 0.31351,-0.082 0.43364,0.17979 0.1291,0.2813 -0.11275,0.0376 -0.13012,0.15634 -0.05,0.34172 0.0675,0.15627 0.11602,0.32257 0.10771,0.36955 -0.008,0.047 0.0801,0.0854 0.19642,0.0854 0.11635,0 0.21265,-0.0714 0.21401,-0.15865 0.001,-0.0873 0.1451,0.0642 0.31943,0.33649 0.29363,0.4587 0.29884,0.5084 0.0708,0.67517 -0.28622,0.20929 -0.3176,0.45246 -0.0775,0.60082 0.0928,0.0573 0.25752,-0.0173 0.36613,-0.16579 0.18507,-0.2531 0.19745,-0.24715 0.19745,0.0948 0,0.63709 -0.28577,0.74725 -0.69056,0.26618 -0.19835,-0.23572 -0.43715,-0.42757 -0.53067,-0.42634 -0.1049,0.001 -0.0923,0.0515 0.033,0.13081 0.16507,0.10454 0.14623,0.17718 -0.10078,0.38868 -0.28033,0.24002 -0.28723,0.29213 -0.0894,0.67467 0.1179,0.22801 0.28382,0.41456 0.3687,0.41456 0.0941,0 0.11793,0.1657 0.0611,0.42446 -0.0816,0.37143 -0.0351,0.45345 0.37228,0.65668 0.54198,0.27037 0.72632,0.20869 0.6177,-0.20669 -0.0553,-0.21139 -0.15673,-0.27175 -0.35237,-0.20966 -0.21707,0.0689 -0.27937,0.008 -0.29672,-0.28879 -0.0121,-0.2068 -0.0285,-0.45838 -0.0366,-0.55906 -0.009,-0.11265 0.13343,-0.16792 0.37029,-0.1437 0.29136,0.0298 0.40544,-0.039 0.46924,-0.28299 l 0.0843,-0.32235 0.3453,0.35621 c 0.45521,0.46962 1.27912,1.83802 1.27912,2.12447 0,0.12437 0.0659,0.18539 0.14645,0.13561 0.0805,-0.0498 0.14645,0.0413 0.14645,0.20239 0,0.16109 -0.067,0.3343 -0.14884,0.38489 -0.17345,0.1072 -0.0512,0.36465 0.17315,0.36465 0.0844,0 0.11555,-0.0988 0.0692,-0.21968 -0.13622,-0.35498 0.19293,-0.25143 0.34914,0.10984 0.0784,0.18123 0.20854,0.44485 0.28928,0.58581 l 0.2936,0.51257 c 0.0807,0.14096 0.2075,0.39559 0.28168,0.56584 0.0742,0.17024 0.23001,0.34604 0.34628,0.39065 0.11626,0.0446 0.3355,0.38288 0.48718,0.75168 0.15169,0.36881 0.35817,0.67081 0.45886,0.67111 0.10068,2.7e-4 0.18306,0.0885 0.18306,0.19595 0,0.10747 0.26361,0.57172 0.58581,1.03166 0.32219,0.45994 0.5858,0.95809 0.5858,1.10699 0,0.1489 0.11348,0.31428 0.25218,0.36751 0.21042,0.0807 0.21764,0.11812 0.0436,0.22568 -0.11472,0.0709 -0.26115,0.0964 -0.32541,0.0567 -0.0643,-0.0397 -0.11683,0.16718 -0.11683,0.45975 0,0.4269 0.0504,0.52226 0.25516,0.48282 0.15059,-0.029 0.28737,-0.22846 0.33375,-0.4867 l 0.0786,-0.43756 0.25206,0.49846 c 0.30461,0.6024 0.31446,0.74637 0.0511,0.74637 -0.15521,0 -0.18492,0.19177 -0.13046,0.84209 0.082,0.97969 0.21663,1.27114 1.12321,2.4322 0.52693,0.67483 0.68997,0.80537 0.76423,0.61184 0.0559,-0.14562 -0.0332,-0.41854 -0.21822,-0.66885 -0.44225,-0.59818 -0.41129,-0.905 0.0855,-0.84718 0.26692,0.031 0.47204,0.1894 0.62241,0.48047 0.12337,0.23877 0.30668,0.52356 0.40737,0.63288 0.23128,0.25109 0.22955,0.30213 -0.0356,1.05371 -0.21273,0.60292 -0.19029,0.88153 0.071,0.88153 0.0704,0 0.16976,-0.13181 0.2209,-0.2929 0.15271,-0.48118 0.61663,-0.35771 0.82542,0.21967 0.10194,0.28192 0.23801,0.51258 0.30238,0.51258 0.0644,0 0.11703,0.0958 0.11703,0.21278 0,0.39082 0.32547,0.93318 0.60366,1.00594 0.15127,0.0395 0.27505,0.14788 0.27505,0.24072 0,0.0928 -0.0729,0.12372 -0.16212,0.0687 -0.1127,-0.0697 -0.13147,0.0393 -0.0616,0.35749 0.0641,0.29202 0.0433,0.45767 -0.0576,0.45767 -0.087,0 -0.15808,-0.11298 -0.15808,-0.25105 0,-0.23043 -0.0211,-0.22898 -0.25629,0.0176 -0.18771,0.19674 -0.20731,0.28677 -0.0732,0.33649 0.10068,0.0373 0.18306,0.16123 0.18306,0.27534 0,0.11411 0.0552,0.20747 0.12261,0.20747 0.0674,0 0.39253,0.25676 0.72243,0.57059 0.45705,0.43478 0.61958,0.51907 0.68287,0.35415 0.12476,-0.32514 0.10298,-0.37792 -0.1206,-0.29212 -0.14173,0.0544 -0.2592,-0.12024 -0.38634,-0.57434 -0.10047,-0.35887 -0.14219,-0.69297 -0.0927,-0.74247 0.095,-0.095 0.16367,0.0657 0.30582,0.71563 0.0599,0.2737 0.15464,0.3716 0.30419,0.31421 0.21777,-0.0836 0.54733,0.48793 0.41297,0.71612 -0.0356,0.0604 0.0161,0.10984 0.11483,0.10984 0.0987,0 0.13963,0.0399 0.0909,0.0886 -0.0487,0.0487 0.0563,0.22995 0.23341,0.40274 0.62526,0.60999 0.7338,0.81121 0.55429,1.02752 -0.10564,0.12728 -0.12124,0.32355 -0.0426,0.53608 0.10439,0.28219 0.1388,0.29677 0.21734,0.0921 0.11632,-0.30312 0.39541,-0.31971 0.39541,-0.0235 0,0.12082 0.0659,0.21967 0.14645,0.21967 0.0806,0 0.14645,0.0989 0.14645,0.21969 0,0.12082 0.13153,0.3512 0.29229,0.51196 0.16076,0.16076 0.42539,0.5397 0.58807,0.84209 0.25192,0.46829 0.26287,0.55683 0.0738,0.59715 -0.12207,0.026 -0.22194,0.10226 -0.22194,0.16936 0,0.0671 -0.13181,0.0875 -0.2929,0.0454 -0.40438,-0.10576 -0.40565,0.48784 -0.001,0.61617 0.37505,0.11904 0.58711,-0.0162 0.58711,-0.37436 0,-0.15634 0.0494,-0.28284 0.10984,-0.28113 0.17469,0.005 0.91591,1.11907 0.813,1.22198 -0.0511,0.0512 -1.89198,0.0929 -4.09079,0.0929 -3.99686,0 -3.99788,-8e-5 -4.17137,-0.32951 -0.0954,-0.18124 -0.21825,-0.36246 -0.27291,-0.40274 -0.18404,-0.13559 -0.59113,-1.07187 -0.50383,-1.15877 0.0476,-0.0473 0.21597,0.0737 0.37425,0.26891 l 0.28777,0.35498 -0.0658,-0.35498 c -0.0362,-0.19523 -0.10989,-0.58669 -0.1638,-0.8699 -0.0809,-0.42499 -0.0324,-0.59126 0.27779,-0.95193 0.3853,-0.44805 0.41689,-0.66753 0.11075,-0.76958 -0.0957,-0.0319 -0.17391,0.0669 -0.17391,0.21953 0,0.15262 -0.13181,0.41897 -0.29291,0.59189 -0.16109,0.17291 -0.2929,0.44894 -0.2929,0.61341 0,0.52469 -0.61814,0.37397 -0.91532,-0.22318 -0.31191,-0.62675 -0.33593,-0.95713 -0.0413,-0.56755 0.20617,0.27257 0.21521,0.26791 0.21968,-0.11331 0.005,-0.40328 -0.38197,-0.74299 -0.75828,-0.66616 -0.11126,0.0228 -0.19553,-0.112 -0.20487,-0.32754 -0.0275,-0.63283 -0.0537,-0.73225 -0.19306,-0.73225 -0.0746,0 -0.15991,0.11533 -0.18947,0.25628 -0.0451,0.21502 -0.0856,0.19846 -0.25142,-0.10283 -0.14284,-0.25953 -0.15122,-0.37461 -0.0302,-0.41495 0.0921,-0.0307 0.16745,-0.15686 0.16745,-0.28036 0,-0.16054 -0.10435,-0.20459 -0.36613,-0.15455 -0.26878,0.0513 -0.36612,0.007 -0.36612,-0.16749 0,-0.13062 -0.15651,-0.40627 -0.34781,-0.61257 -0.25877,-0.27908 -0.33699,-0.51132 -0.30557,-0.9073 0.0804,-1.01288 0.41575,-1.07899 0.57877,-0.11409 0.0701,0.41521 0.1555,0.55376 0.30564,0.49614 0.26479,-0.10161 0.26483,-0.41046 1.3e-4,-0.90471 -0.1145,-0.21379 -0.24424,-0.50405 -0.2883,-0.64501 -0.12115,-0.38753 -0.28581,-0.31162 -0.60347,0.27824 l -0.28786,0.53452 -0.12019,-0.60775 c -0.1054,-0.533 -0.16882,-0.60775 -0.51569,-0.60775 -0.37233,0 -0.8236,-0.43493 -0.83575,-0.80548 -0.003,-0.0806 -0.13304,-0.29493 -0.28978,-0.4764 -0.27818,-0.32209 -0.42151,-1.50044 -0.18252,-1.50062 0.0604,-3e-5 0.10984,-0.16624 0.10984,-0.36934 0,-0.25606 -0.11737,-0.42274 -0.38284,-0.5437 -0.35517,-0.16182 -0.37684,-0.22513 -0.29981,-0.87557 0.0796,-0.67199 -0.10112,-0.97248 -0.28955,-0.48145 -0.0961,0.25033 -0.49231,0.30084 -0.49231,0.0627 0,-0.0863 0.10179,-0.2587 0.22621,-0.38312 0.26869,-0.26869 0.21116,-0.53982 -0.12851,-0.6057 -0.14451,-0.028 -0.24415,0.0467 -0.24415,0.18306 0,0.12673 -0.0659,0.23042 -0.14645,0.23042 -0.0805,0 -0.14646,0.13181 -0.14646,0.2929 0,0.42583 -0.22822,0.35975 -0.63234,-0.18306 -0.3972,-0.53352 -0.62809,-1.28145 -0.3956,-1.28145 0.0821,0 0.14924,0.0791 0.14924,0.17574 0,0.1309 0.0423,0.13341 0.16589,0.01 0.23462,-0.2346 0.0378,-0.7083 -0.20915,-0.50335 -0.23438,0.19451 -0.42681,0.062 -0.65091,-0.44821 -0.11733,-0.26712 -0.25003,-0.3713 -0.39976,-0.31385 -0.20116,0.0772 -0.29448,-0.0856 -0.24147,-0.42129 0.01,-0.0604 -0.053,-0.10984 -0.13898,-0.10984 -0.0862,0 -0.11722,-0.12319 -0.0691,-0.27475 0.0621,-0.19568 0.002,-0.2971 -0.20981,-0.35242 -0.16335,-0.0427 -0.29701,-0.14973 -0.29701,-0.23782 0,-0.23758 0.37542,-0.19399 0.59362,0.0689 0.11845,0.14271 0.31507,0.19772 0.52153,0.14591 0.18228,-0.0457 0.37229,-0.017 0.42225,0.0638 0.1288,0.20839 0.36647,0.18238 0.36647,-0.0401 0,-0.1029 0.10479,-0.3367 0.23287,-0.51956 0.17907,-0.25567 0.27839,-0.29469 0.42994,-0.16892 0.37161,0.30841 0.40932,0.98405 0.0807,1.44558 -0.31648,0.44444 -0.3819,0.76675 -0.19431,0.95718 0.0604,0.0613 0.10984,0.31945 0.10984,0.5736 0,0.67589 0.28767,0.56553 0.32248,-0.1237 0.0838,-1.65993 0.24055,-2.71536 0.42605,-2.86931 0.11187,-0.0928 0.2034,-0.33318 0.2034,-0.53408 0,-0.30962 -0.0502,-0.35065 -0.32952,-0.26927 -0.18123,0.0528 -0.54943,0.13595 -0.81822,0.18476 -0.26879,0.0488 -0.52871,0.19454 -0.57761,0.32382 -0.0489,0.12928 -0.1679,0.31507 -0.26445,0.41287 -0.1373,0.13908 -0.19194,0.11514 -0.25077,-0.10984 -0.0428,-0.16368 -0.20015,-0.28765 -0.3651,-0.28765 -0.15943,0 -0.47335,-0.0952 -0.69759,-0.21153 -0.27357,-0.14193 -0.49087,-0.16703 -0.66042,-0.0763 -0.21654,0.11589 -0.24965,0.0676 -0.23143,-0.33766 0.0167,-0.3706 -0.0328,-0.46392 -0.22844,-0.43138 -0.35722,0.0594 -0.7661,-0.64121 -0.72555,-1.24322 0.0188,-0.27854 -0.0235,-0.47083 -0.0939,-0.42731 -0.0704,0.0435 -0.3859,-0.18914 -0.70104,-0.51704 -0.43811,-0.45585 -0.49997,-0.5742 -0.26278,-0.50277 0.23358,0.0703 0.37372,-0.004 0.56723,-0.29884 0.2508,-0.38275 0.24867,-0.39854 -0.088,-0.65246 -0.23491,-0.17719 -0.40042,-0.21418 -0.51879,-0.11595 -0.11872,0.0985 -0.21239,0.0753 -0.29548,-0.0731 -0.0669,-0.11956 -0.18757,-0.21818 -0.26812,-0.21915 -0.0805,-10e-4 -0.18243,-0.15393 -0.22641,-0.33992 -0.0765,-0.3236 -0.0849,-0.32554 -0.19499,-0.0453 -0.10298,0.26223 -0.14506,0.23492 -0.40183,-0.26084 -0.15775,-0.30455 -0.24463,-0.62198 -0.19309,-0.70538 0.0515,-0.0834 -0.0282,-0.2515 -0.17723,-0.37354 -0.24349,-0.1994 -0.24498,-0.21372 -0.0147,-0.1413 0.18459,0.058 0.25629,-8e-5 0.25629,-0.20772 0,-0.15857 -0.0638,-0.28831 -0.14177,-0.28831 -0.078,0 -0.2401,-0.18123 -0.36027,-0.40274 -0.20226,-0.37284 -0.30584,-0.27849 -0.24115,0.21968 0.04,0.3081 -0.0798,0.20849 -0.48426,-0.40274 -0.24319,-0.36748 -0.31867,-0.58664 -0.20252,-0.58805 0.13425,-0.002 0.12858,-0.0381 -0.0206,-0.1325 -0.11316,-0.0716 -0.19995,-0.33424 -0.19286,-0.58356 0.007,-0.24932 -0.0486,-0.4533 -0.12377,-0.4533 -0.0752,0 -0.13666,-0.10213 -0.13666,-0.22695 0,-0.17089 -0.0617,-0.19243 -0.24974,-0.0872 -0.27427,0.15348 -0.36763,0.0391 -0.93879,-1.15037 -0.17405,-0.36247 -0.41411,-0.71616 -0.53347,-0.78598 -0.18134,-0.10609 -0.18403,-0.14784 -0.0164,-0.25405 0.16475,-0.10436 0.16109,-0.1275 -0.0204,-0.12934 -0.29073,-0.003 -0.61894,-0.5401 -0.52149,-0.8535 0.0949,-0.30509 -0.0379,-0.51768 -0.46318,-0.7416 -0.17987,-0.0947 -0.49707,-0.53163 -0.7049,-0.97093 -0.20782,-0.43931 -0.43076,-0.83143 -0.49541,-0.87139 -0.12837,-0.0793 -0.0349,-0.79662 0.13447,-1.03158 0.15728,-0.21825 0.43746,-1.09838 0.34964,-1.09838 -0.17001,0 -0.51605,0.45747 -0.66138,0.87434 -0.085,0.24405 -0.20585,0.44372 -0.2684,0.44372 -0.0625,0 -0.45339,-0.56831 -0.86851,-1.26291 -0.5296,-0.88612 -0.72666,-1.35152 -0.66053,-1.55989 0.0722,-0.22745 0.0415,-0.27673 -0.13109,-0.2105 -0.15656,0.0601 -0.27117,-0.0449 -0.37542,-0.34398 -0.0825,-0.23674 -0.21495,-0.43045 -0.29425,-0.43045 -0.0793,0 -0.18603,-0.1318 -0.23717,-0.2929 -0.0512,-0.16109 -0.16334,-0.2929 -0.24936,-0.2929 -0.20379,0 -0.84765,0.69605 -0.85367,0.92286 -0.006,0.23863 -0.4347,0.79145 -0.4347,0.561 0,-0.1007 -0.0686,-0.1407 -0.15241,-0.0889 -0.0839,0.0518 -0.11757,0.20397 -0.075,0.33816 0.0426,0.13418 -0.0768,0.49932 -0.26508,0.81144 -0.31679,0.52488 -0.3489,0.54301 -0.42773,0.24155 -0.09,-0.34405 -0.39785,-0.28345 -0.39785,0.0783 0,0.11607 -0.0659,0.21104 -0.14645,0.21104 -0.0806,0 -0.14646,-0.0988 -0.14646,-0.21968 0,-0.2672 -0.20384,-0.28564 -0.40466,-0.0366 -0.24017,0.29784 -0.2064,1.57385 0.0443,1.67002 0.17951,0.0689 0.16136,0.17779 -0.11017,0.6609 -0.2777,0.49412 -0.34224,0.53983 -0.44281,0.31366 -0.091,-0.20455 -0.10252,-0.18599 -0.0508,0.0816 0.0768,0.39714 -0.18603,0.89845 -0.47093,0.89845 -0.1062,0 -0.15248,0.0657 -0.10285,0.14602 0.097,0.1569 -1.01999,2.12397 -1.20606,2.12397 -0.0615,0 -0.0944,0.0521 -0.0731,0.11577 0.0652,0.19546 -0.2577,0.68971 -0.45055,0.68971 -0.29076,0 -0.68642,0.55573 -0.68642,0.96414 0,0.39166 -0.71043,1.74262 -0.84541,1.60764 -0.0426,-0.0427 -0.15645,0.0303 -0.25289,0.16221 -0.21201,0.28994 -0.48013,0.15321 -0.66786,-0.34059 -0.0755,-0.19839 -0.20318,-0.31991 -0.28388,-0.27003 -0.21884,0.13525 -0.17721,1.18383 0.0546,1.37626 0.11075,0.0919 0.20137,0.33065 0.20137,0.53051 0,0.34369 -0.12884,0.42242 -0.65903,0.40273 -0.10069,-0.004 -0.18306,0.11768 -0.18306,0.26983 0,0.15215 0.0981,0.27663 0.2181,0.27663 0.15529,0 0.0449,0.28467 -0.38345,0.98855 -0.33084,0.54369 -0.62737,1.01667 -0.65895,1.05106 -0.0316,0.0344 -0.0402,-0.26218 -0.0193,-0.65903 l 0.0381,-0.72155 -0.49859,0.0299 c -0.56882,0.0342 -0.83078,0.22737 -0.66719,0.49205 0.0847,0.13706 0.15591,0.12151 0.29126,-0.0636 0.15518,-0.21221 0.20146,-0.15638 0.34588,0.41717 0.0917,0.36419 0.22946,0.66217 0.30613,0.66217 0.0767,0 2.7e-4,0.23569 -0.16961,0.52375 -0.23499,0.39828 -0.34211,0.47722 -0.44712,0.32952 -0.098,-0.13781 -0.11712,-0.0986 -0.0659,0.13513 0.0397,0.18115 0.0125,0.36627 -0.0606,0.41138 -0.073,0.0451 -0.13302,-0.004 -0.13342,-0.10969 -8e-4,-0.24591 -0.71925,0.62318 -0.72627,0.8787 -0.003,0.10544 0.0606,0.15098 0.14119,0.1012 0.22505,-0.13909 0.17686,0.0356 -0.18173,0.65865 -0.1805,0.31362 -0.42764,0.56337 -0.54919,0.555 -0.48285,-0.0333 -0.80319,0.038 -0.64349,0.14326 0.24966,0.16448 0.35951,0.66737 0.19946,0.91308 -0.12721,0.19527 -0.16062,0.19527 -0.30071,0 -0.10808,-0.15065 -0.17946,-0.1666 -0.22717,-0.0508 -0.0866,0.21023 -0.78684,-0.45968 -0.78684,-0.75274 0,-0.1124 -0.0659,-0.24511 -0.14645,-0.29489 -0.083,-0.0513 -0.14645,0.0717 -0.14645,0.28426 0,0.20613 0.0659,0.37477 0.14645,0.37477 0.0806,0 0.14645,0.2016 0.14645,0.448 0,0.2464 0.0584,0.4119 0.1298,0.36777 0.0714,-0.0441 0.16415,0.0511 0.20613,0.21164 0.0517,0.19766 0.1534,0.26228 0.31511,0.20023 0.19732,-0.0757 0.18511,-5.3e-4 -0.0703,0.43225 -0.17001,0.28814 -0.43612,0.5642 -0.59137,0.61348 -0.15525,0.0493 -0.28227,0.15494 -0.28227,0.23481 0,0.0799 0.0659,0.1045 0.14645,0.0547 0.0806,-0.0498 0.14645,-0.0584 0.14645,-0.0191 0,0.1789 -1.07375,1.84978 -1.18872,1.84978 -0.0711,0 -0.11287,0.0741 -0.0927,0.16475 0.0769,0.34632 -0.28734,0.26396 -0.45442,-0.10273 l -0.17538,-0.38492 -0.36244,0.53408 c -0.19933,0.29374 -0.36243,0.62232 -0.36243,0.73017 0,0.10785 -0.1318,0.23056 -0.29291,0.27269 -0.16109,0.0422 -0.29289,0.18162 -0.29289,0.30998 0,0.26115 0.22629,0.31319 0.3676,0.0846 0.0506,-0.0819 0.16981,-0.10425 0.26493,-0.0497 0.0951,0.0545 0.12665,0.0477 0.0701,-0.015 -0.0565,-0.0627 -0.0118,-0.20516 0.0994,-0.31638 0.47167,-0.47167 0.50082,-0.0237 0.0542,0.83321 -0.25644,0.49199 -0.33994,0.56128 -0.44663,0.37063 -0.16189,-0.28929 -0.49744,-0.30548 -0.60348,-0.0291 -0.10067,0.26233 0.0202,0.38045 0.38918,0.38045 0.25548,0 0.23172,0.21604 -0.0244,0.22192 -0.0537,9.1e-4 -0.18002,0.0545 -0.2807,0.11848 -0.10439,0.0663 -0.18306,0.0496 -0.18306,-0.0389 0,-0.0853 -0.0698,-0.15509 -0.15511,-0.15509 -0.0853,0 -0.11806,0.0599 -0.0728,0.13313 0.0453,0.0732 -0.0124,0.48511 -0.12817,0.91532 -0.13266,0.49312 -0.21617,0.64688 -0.22594,0.41606 l -0.0155,-0.36613 -0.22676,0.41854 c -0.12472,0.23019 -0.19342,0.54606 -0.15266,0.70193 0.0408,0.15587 -0.0844,0.56066 -0.27819,0.89953 -0.33809,0.59129 -0.35237,0.59954 -0.35406,0.20474 -9.1e-4,-0.22626 -0.0588,-0.3761 -0.12864,-0.33297 -0.0698,0.0432 -0.24617,-0.0534 -0.39196,-0.21449 -0.19735,-0.21807 -0.29376,-0.24651 -0.37732,-0.1113 -0.0617,0.0999 -0.0439,0.26399 0.0397,0.36466 0.10376,0.12502 0.10476,0.3123 0.003,0.59072 -0.0819,0.22422 -0.15395,0.3106 -0.1603,0.19196 -0.007,-0.13728 -0.17121,-0.0409 -0.45069,0.26508 -0.24152,0.26443 -0.50512,0.43998 -0.5858,0.39012 -0.0807,-0.0499 -0.14668,0.0121 -0.14668,0.13767 0,0.12557 0.0659,0.22831 0.14645,0.22831 0.0806,0 0.14645,0.10275 0.14645,0.22833 0,0.13023 0.0699,0.18508 0.16283,0.12769 0.0896,-0.0554 0.22035,-0.01 0.29065,0.10119 0.19421,0.30662 0.15728,0.46242 -0.0873,0.36854 -0.12082,-0.0463 -0.21967,-0.0124 -0.21967,0.0755 0,0.10541 -0.0747,0.0977 -0.21968,-0.0225 -0.17935,-0.14886 -0.21967,-0.14024 -0.21967,0.047 0,0.12612 0.14647,0.33189 0.32549,0.45728 0.17901,0.1254 0.25206,0.22798 0.16232,0.22798 -0.0898,0 -0.20393,0.16243 -0.25375,0.36096 -0.063,0.25092 -0.16046,0.33415 -0.31977,0.27302 -0.16556,-0.0636 -0.21596,-0.0113 -0.18157,0.18823 0.036,0.20875 -0.0368,0.27292 -0.29808,0.26281 -0.31917,-0.0124 -0.33976,0.0307 -0.2686,0.56129 0.0424,0.31605 0.0391,0.53665 -0.007,0.49019 -0.0902,-0.0902 -0.28548,0.21809 -0.73554,1.16174 -0.15447,0.32389 -0.37361,0.68636 -0.48699,0.80548 -0.11336,0.11913 -0.30498,0.40805 -0.4258,0.64206 -0.14845,0.2875 -0.23406,0.35191 -0.26402,0.19865 -0.0244,-0.12475 -0.2087,-0.25823 -0.40957,-0.29662 -0.3191,-0.061 -0.36157,-0.0213 -0.33631,0.31392 0.0728,0.96639 0.3774,0.89632 -3.89621,0.89632 -2.13452,0 -3.87926,-0.0494 -3.87721,-0.10984 z m 63.40953,-2.00505 c 0,-0.0355 -0.0659,-0.10532 -0.14646,-0.1551 -0.0805,-0.0498 -0.14645,-0.0208 -0.14645,0.0645 0,0.0853 0.0659,0.15511 0.14645,0.15511 0.0805,0 0.14646,-0.029 0.14646,-0.0645 z m -54.62623,-0.3102 c 0,-0.12557 -0.067,-0.18691 -0.14883,-0.13633 -0.0819,0.0506 -0.11093,0.15334 -0.0645,0.22833 0.12554,0.20313 0.21342,0.16525 0.21342,-0.092 z m 0.73002,-0.17441 c -9.1e-4,-0.14627 -0.0492,-0.19342 -0.11154,-0.10985 -0.0601,0.0806 -0.16895,0.19589 -0.24184,0.2563 -0.0729,0.0604 -0.0227,0.10983 0.11154,0.10983 0.13568,0 0.24309,-0.11382 0.24184,-0.25628 z m 54.18911,-0.0773 c 0,-0.17247 -0.49594,-0.69158 -0.66071,-0.69158 -0.10812,0 -0.0858,0.66921 0.0261,0.78107 0.17057,0.17056 0.63462,0.10512 0.63462,-0.0895 z m -54.18687,-1.02248 c 0,-0.47769 -0.073,-0.66939 -0.31163,-0.81842 -0.30184,-0.1885 -0.30842,-0.17756 -0.20965,0.34893 0.0878,0.46788 0.36423,1.09329 0.48329,1.09329 0.0209,0 0.038,-0.28071 0.038,-0.6238 z m -6.3438,0.15699 c -0.0467,-0.11683 -0.0815,-0.0821 -0.0885,0.0885 -0.006,0.15438 0.0282,0.24088 0.0769,0.19221 0.0486,-0.0486 0.0539,-0.17498 0.0116,-0.28069 z m 53.30511,-0.44851 c -0.0406,-0.10068 -0.0739,-0.0183 -0.0739,0.18306 0,0.20138 0.0332,0.28376 0.0739,0.18307 0.0406,-0.10069 0.0406,-0.26544 0,-0.36613 z m -52.75238,-0.24617 c 0.0463,-0.075 0.0173,-0.17772 -0.0645,-0.22832 -0.0819,-0.0506 -0.14884,0.0107 -0.14884,0.13633 0,0.25725 0.0879,0.29513 0.21342,0.092 z m 53.68055,-0.15657 c 0,-0.0806 -0.0659,-0.14645 -0.14646,-0.14645 -0.0805,0 -0.14645,0.0659 -0.14645,0.14645 0,0.0806 0.0659,0.14645 0.14645,0.14645 0.0805,0 0.14646,-0.0659 0.14646,-0.14645 z m -1.37603,-0.39969 c -0.14887,-0.14887 -0.27171,0.0753 -0.14956,0.27289 0.0923,0.1493 0.12676,0.14942 0.17637,5.3e-4 0.0339,-0.10175 0.0219,-0.22482 -0.0268,-0.27348 z m 0.53383,-0.10939 c -0.0961,-0.50253 -0.18296,-0.46531 -0.18296,0.0784 0,0.2464 0.0571,0.41273 0.12681,0.36963 0.0697,-0.0431 0.095,-0.24471 0.0562,-0.448 z m -45.25692,-1.10354 c -0.0987,-0.15799 -0.1794,-0.48586 -0.1794,-0.7286 0,-0.51847 -0.24824,-0.58335 -0.42785,-0.11182 -0.0833,0.21868 -0.0629,0.4034 0.0606,0.54919 0.10238,0.12082 0.23343,0.37459 0.29123,0.56393 0.0779,0.25512 0.14778,0.30157 0.26995,0.17941 0.12216,-0.12217 0.11839,-0.23923 -0.0146,-0.45211 z m 45.07396,0.44102 c 0,-0.0806 -0.0659,-0.14645 -0.14645,-0.14645 -0.0806,0 -0.14645,0.0659 -0.14645,0.14645 0,0.0806 0.0659,0.14646 0.14645,0.14646 0.0805,0 0.14645,-0.0659 0.14645,-0.14646 z m -51.23099,-0.32463 c -0.10509,-0.10509 -0.17331,-0.11373 -0.17331,-0.0219 0,0.19548 0.1732,0.36867 0.27094,0.27093 0.0416,-0.0416 -0.003,-0.15365 -0.0976,-0.24896 z m 1.2912,0.0403 c 0,-0.0757 -0.0659,-0.17854 -0.14645,-0.22833 -0.0806,-0.0498 -0.14645,0.0122 -0.14645,0.13781 0,0.12558 0.0659,0.22832 0.14645,0.22832 0.0806,0 0.14645,-0.062 0.14645,-0.1378 z m 1.01487,-1.18758 c 0.005,-0.2054 0.0894,-0.45253 0.18603,-0.54919 0.26991,-0.26991 0.0122,-0.20842 -0.32052,0.0765 -0.29006,0.24836 -0.40948,1.04857 -0.18932,1.26872 0.13246,0.13247 0.31026,-0.30462 0.32381,-0.79601 z m -1.0892,-0.55705 c 0.13103,-0.29371 0.39517,-0.83058 0.58699,-1.19305 0.37635,-0.71116 0.43978,-1.12116 0.22576,-1.45954 -0.10777,-0.1704 -0.16826,-0.12508 -0.29314,0.21968 -0.0866,0.23891 -0.24949,0.66505 -0.36212,0.94697 -0.11263,0.28191 -0.23727,0.61753 -0.27697,0.74579 -0.0397,0.12828 -0.31288,0.34744 -0.60707,0.48703 -0.89572,0.42506 -0.85479,0.98426 0.0622,0.84967 0.32148,-0.0472 0.48463,-0.19368 0.66436,-0.59655 z m 48.73846,-0.31448 c -0.10538,-0.40297 -0.18885,-0.36672 -0.18885,0.082 0,0.20612 0.0597,0.33786 0.1327,0.29275 0.073,-0.0451 0.0983,-0.21375 0.0561,-0.37477 z m -43.24544,-0.81398 c 0,-0.11607 -0.0659,-0.21103 -0.14645,-0.21103 -0.0806,0 -0.14646,0.13569 -0.14646,0.30154 0,0.16585 0.0659,0.26081 0.14646,0.21103 0.0806,-0.0498 0.14645,-0.18547 0.14645,-0.30154 z m 43.21822,-0.40089 c -0.11787,-0.11787 -0.16043,-0.0447 -0.15718,0.2704 0.004,0.37874 0.0238,0.39868 0.16163,0.16163 0.11264,-0.19379 0.11138,-0.3162 -0.005,-0.43203 z m -43.65758,0.20778 c 0,-0.15123 -0.0988,-0.357 -0.21967,-0.45728 -0.18512,-0.15364 -0.21968,-0.12575 -0.21968,0.17733 0,0.19782 0.044,0.4036 0.0976,0.45729 0.18187,0.18186 0.34172,0.0989 0.34172,-0.17734 z m 47.79134,-0.98197 c -0.11724,-0.30551 -0.34122,-0.2525 -0.34122,0.0808 0,0.19047 0.0714,0.26091 0.21043,0.20755 0.11574,-0.0444 0.17459,-0.17415 0.13079,-0.2883 z m -45.62951,-0.3523 c -0.0229,-0.11989 -0.15622,-0.24006 -0.29625,-0.26702 -0.19738,-0.0381 -0.25461,0.0524 -0.25461,0.40229 0,0.41615 0.0231,0.43697 0.29625,0.26703 0.16294,-0.10136 0.27752,-0.28239 0.25461,-0.4023 z m -1.74676,0.007 c 0.0332,-0.22718 -0.0137,-0.31371 -0.14645,-0.26996 -0.10746,0.0354 -0.21741,0.21486 -0.24433,0.39875 -0.0332,0.22719 0.0137,0.31372 0.14646,0.26996 0.10746,-0.0354 0.2174,-0.21486 0.24432,-0.39875 z m 42.34862,0.0815 c 0,-0.24111 -0.47779,-0.39402 -0.7348,-0.23518 -0.0998,0.0616 -0.13614,0.1854 -0.0808,0.27495 0.14575,0.23584 0.8156,0.20317 0.8156,-0.0398 z m -1.83063,-0.0903 c 0.0498,-0.0806 0.0246,-0.14644 -0.0559,-0.14644 -0.0805,0 -0.18719,0.0659 -0.23697,0.14644 -0.0498,0.0806 -0.0246,0.14646 0.0559,0.14646 0.0805,0 0.18718,-0.0659 0.23697,-0.14646 z m 5.46384,-0.45033 c -0.0289,-0.0866 -0.10026,-0.1525 -0.15866,-0.14645 -0.0584,0.006 -0.23798,0.011 -0.39908,0.011 -0.16109,0 -0.2929,0.0659 -0.2929,0.14644 0,0.0806 0.2032,0.14646 0.45156,0.14646 0.25695,0 0.42894,-0.0678 0.39908,-0.15744 z m -48.84005,-0.81132 c -0.18472,-0.48136 -0.77188,-0.0865 -0.66931,0.45014 l 0.0659,0.34503 0.3406,-0.29616 c 0.18733,-0.16287 0.30557,-0.38743 0.26275,-0.49901 z m 42.71718,0.53803 c 0,-0.0758 -0.0659,-0.17854 -0.14645,-0.22833 -0.0806,-0.0498 -0.14646,0.0122 -0.14646,0.13782 0,0.12557 0.0659,0.22831 0.14646,0.22831 0.0805,0 0.14645,-0.062 0.14645,-0.1378 z m 0.48669,-0.63106 c -0.0505,-0.26178 -0.177,-0.60078 -0.28116,-0.75331 -0.18002,-0.26363 -0.19402,-0.25889 -0.2831,0.096 -0.0603,0.24021 -0.005,0.5089 0.15522,0.75331 0.34018,0.51918 0.51956,0.47706 0.40904,-0.096 z m -37.31902,-0.93857 c 0.20762,-0.43532 0.17283,-0.92868 -0.0655,-0.92868 -0.1291,0 -0.44719,0.66796 -0.44719,0.93907 0,0.10616 -0.1361,0.36605 -0.30242,0.5775 -0.16633,0.21145 -0.25453,0.46195 -0.196,0.55666 0.12296,0.19896 0.66057,-0.40959 1.0111,-1.14455 z m -4.49273,0.63353 c 0.0686,-0.35336 -0.21803,-0.30084 -0.31165,0.0571 -0.0501,0.19164 -0.0163,0.28049 0.0928,0.24416 0.0943,-0.0314 0.19285,-0.16698 0.21889,-0.30126 z m 45.71859,0.26637 c 0,-0.1504 -0.66198,-1.09275 -0.76887,-1.09452 -0.19014,-0.003 -0.11932,0.40714 0.10984,0.6363 0.12082,0.12082 0.21967,0.29029 0.21967,0.37659 0,0.0863 0.0989,0.15691 0.21968,0.15691 0.12082,0 0.21968,-0.0339 0.21968,-0.0753 z m -46.79555,-0.49648 c 0.0487,-0.15337 0.0574,-0.44994 0.0196,-0.65903 -0.0542,-0.29859 -0.01,-0.38017 0.20563,-0.38017 0.151,0 0.3156,0.0664 0.36576,0.14757 0.12588,0.20367 0.47428,-0.16643 0.58975,-0.62648 0.10236,-0.40786 -0.17348,-0.70268 -0.31424,-0.33585 -0.12834,0.33444 -0.49588,0.27991 -0.49588,-0.0736 0,-0.40979 -0.27521,-0.8973 -0.4467,-0.79132 -0.0765,0.0473 -0.14207,0.32922 -0.14571,0.62652 -0.004,0.2973 -0.0911,0.73825 -0.19432,0.9799 -0.13589,0.31802 -0.14749,0.57081 -0.0421,0.91532 0.16459,0.53775 0.3278,0.60796 0.4582,0.19711 z m 47.31415,-0.005 c -0.0531,-0.0859 -0.16115,-0.15618 -0.24012,-0.15618 -0.079,0 -0.0586,0.0922 0.0453,0.2049 0.21025,0.22815 0.34513,0.19442 0.19486,-0.0487 z m -42.76972,-1.48626 c 0,-0.34714 -0.0673,-0.50037 -0.21967,-0.50037 -0.23447,0 -0.37173,0.53526 -0.23119,0.90154 0.14855,0.3871 0.45086,0.1181 0.45086,-0.40117 z m 1.49134,-0.89396 c -0.0467,-0.11682 -0.0815,-0.0821 -0.0885,0.0885 -0.006,0.15439 0.0282,0.24088 0.0769,0.19222 0.0487,-0.0487 0.0539,-0.17498 0.0116,-0.2807 z m 36.28104,-0.20788 c 0.12741,-0.0489 0.23166,-0.24661 0.23166,-0.43936 0,-0.27619 -0.0776,-0.35046 -0.36613,-0.35046 -0.30917,0 -0.36613,0.0683 -0.36613,0.43936 0,0.4471 0.0881,0.50876 0.5006,0.35046 z m -41.17679,-0.2809 c 0.008,-0.0785 -0.0952,-0.16405 -0.23014,-0.19004 -0.17388,-0.0335 -0.21892,0.0217 -0.15461,0.18925 0.0948,0.24712 0.35844,0.24766 0.38475,8e-4 z m 1.58898,-0.69875 c -0.18796,-0.18796 -0.37858,-0.0427 -0.23942,0.18248 0.0539,0.0872 0.1651,0.11712 0.2471,0.0664 0.10002,-0.0618 0.0975,-0.14374 -0.007,-0.24892 z m 42.37109,-0.0813 c 0.22619,-0.43739 0.0956,-0.75404 -0.31092,-0.75404 -0.19838,0 -0.27536,0.89137 -0.0928,1.07398 0.1481,0.14809 0.17106,0.1299 0.40368,-0.31994 z m -43.4973,0.1451 c 0.0428,-0.0693 0.0402,-0.16363 -0.005,-0.20959 -0.11428,-0.11429 -0.49428,0.0432 -0.49428,0.20483 0,0.16733 0.39714,0.17111 0.49996,0.005 z m 41.97084,-0.24875 c 0,-0.21255 -0.0634,-0.33559 -0.14646,-0.28426 -0.0805,0.0498 -0.14645,0.21843 -0.14645,0.37478 0,0.15634 0.0659,0.28425 0.14645,0.28425 0.0806,0 0.14646,-0.16864 0.14646,-0.37477 z m -39.91738,-0.34213 c 0.0445,-0.0721 -0.0175,-0.16889 -0.13781,-0.21507 -0.13293,-0.051 -0.21883,5.2e-4 -0.21883,0.1311 0,0.23687 0.22884,0.29075 0.35664,0.084 z m 35.49171,-0.41808 c -0.0311,-0.0604 -0.16927,-0.35697 -0.30707,-0.65903 -0.13779,-0.30205 -0.3485,-0.54919 -0.46824,-0.54919 -0.32318,0 -0.26377,0.405 0.0752,0.51258 0.1611,0.0511 0.2929,0.20934 0.2929,0.35159 0,0.14224 0.0439,0.30256 0.0976,0.35625 0.13351,0.13351 0.3796,0.12381 0.30959,-0.0122 z m 5.0898,-0.0715 c 0.30593,0.0585 0.36102,0.0131 0.36102,-0.29745 0,-0.20155 -0.0955,-0.5505 -0.21218,-0.77544 -0.1167,-0.22494 -0.17871,-0.46313 -0.13781,-0.52932 0.0409,-0.0662 0.005,-0.12034 -0.0807,-0.12034 -0.17338,0 -0.18057,0.0216 -0.23702,0.71046 -0.0221,0.26993 -0.076,0.66535 -0.11978,0.87871 -0.0438,0.21336 -0.0469,0.31512 -0.007,0.22614 0.0399,-0.089 0.23498,-0.13072 0.43354,-0.0928 z m -41.27835,-0.40147 c 0.13495,-0.2707 0.13761,-0.38655 0.0106,-0.46501 -0.20172,-0.12467 -0.43888,-0.008 -0.33273,0.16386 0.0412,0.0665 -0.0237,0.15878 -0.14407,0.20496 -0.12036,0.0462 -0.21883,0.18973 -0.21883,0.31899 0,0.3527 0.47508,0.19817 0.68496,-0.2228 z m 42.51808,-0.61811 c 0,-0.23658 -0.0433,-0.27888 -0.16298,-0.15921 -0.0896,0.0896 -0.11871,0.23462 -0.0646,0.32219 0.15148,0.24511 0.22756,0.19063 0.22756,-0.16298 z m -5.77325,-0.6524 c -0.0813,-0.21192 -0.12446,-0.22334 -0.22557,-0.0597 -0.16759,0.27116 -0.0166,0.66453 0.17967,0.46821 0.0805,-0.0805 0.10121,-0.26436 0.0459,-0.40848 z m 3.96169,-0.0872 c -0.0486,-0.18124 -0.0892,-0.37895 -0.0903,-0.43936 -10e-4,-0.0604 -0.10085,-0.10984 -0.22168,-0.10984 -0.1325,0 -0.21967,0.13561 -0.21967,0.34172 0,0.39427 0.10833,0.53699 0.40762,0.53699 0.14874,0 0.18589,-0.0987 0.12404,-0.32951 z m 0.88462,-0.93914 c -0.18071,-0.18071 -0.34627,0.11914 -0.27402,0.49629 l 0.0778,0.40623 0.13747,-0.41189 c 0.0756,-0.22654 0.10205,-0.44733 0.0587,-0.49063 z m -0.68402,-0.51535 c 0,-0.23625 -0.33735,-0.28463 -0.54397,-0.078 -0.31329,0.31329 -0.11374,0.59135 0.25785,0.35928 0.15737,-0.0983 0.28612,-0.22484 0.28612,-0.28126 z m -33.68374,0.0266 c 0,-0.0805 -0.0659,-0.14645 -0.14644,-0.14645 -0.0806,0 -0.14645,0.0659 -0.14645,0.14645 0,0.0806 0.0659,0.14645 0.14645,0.14645 0.0806,0 0.14644,-0.0659 0.14644,-0.14645 z m 26.72731,0 c 0.0498,-0.0805 0.0207,-0.14645 -0.0646,-0.14645 -0.0853,0 -0.15509,0.0659 -0.15509,0.14645 0,0.0806 0.0291,0.14645 0.0646,0.14645 0.0355,0 0.10531,-0.0659 0.15509,-0.14645 z m 0.7715,-0.14645 c -0.10061,-0.16109 -0.23297,-0.2929 -0.29415,-0.2929 -0.0612,0 -0.11122,0.13181 -0.11122,0.2929 0,0.19568 0.0976,0.2929 0.29414,0.2929 0.25749,0 0.27135,-0.0365 0.11123,-0.2929 z m -33.06394,-0.14186 c 0,-0.078 0.099,-0.10386 0.22003,-0.0574 0.30423,0.11675 0.79427,-0.51067 0.80026,-1.02461 0.004,-0.32237 -0.0483,-0.398 -0.22678,-0.32952 -0.12742,0.0489 -0.29217,0.0889 -0.36613,0.0889 -0.0739,0 -0.13448,0.11146 -0.13448,0.24767 0,0.22153 -0.0208,0.21917 -0.19746,-0.0224 -0.26414,-0.36124 -0.58545,-0.1542 -0.47064,0.30327 0.0496,0.19765 0.0229,0.35015 -0.0614,0.35015 -0.21286,0 -0.18515,0.40045 0.0338,0.48881 0.29412,0.11868 0.40274,0.10659 0.40274,-0.0449 z m 1.711,-0.47141 c -0.0467,-0.11683 -0.0815,-0.0821 -0.0885,0.0885 -0.006,0.15438 0.0282,0.24088 0.0769,0.19222 0.0486,-0.0487 0.0539,-0.17498 0.0116,-0.2807 z m 1.80383,-0.0751 c 0,-0.29451 -0.0423,-0.35308 -0.1659,-0.22952 -0.0912,0.0912 -0.12627,0.26918 -0.0778,0.39542 0.13406,0.34937 0.24372,0.27473 0.24372,-0.1659 z m 35.58534,0.13913 c -0.001,-0.0604 -0.058,-0.19779 -0.12613,-0.30528 -0.0942,-0.1486 -0.14303,-0.12227 -0.20372,0.10984 -0.053,0.20254 -0.0105,0.30528 0.12613,0.30528 0.11328,0 0.20496,-0.0494 0.20372,-0.10984 z m -2.67042,-0.5858 c 0.0358,-0.10738 -0.0652,-0.18307 -0.24415,-0.18307 -0.17989,0 -0.30511,0.0946 -0.30511,0.23042 0,0.26916 0.45699,0.22976 0.54926,-0.0474 z m 1.20816,-0.18307 c 0,-0.0805 -0.0698,-0.14645 -0.1551,-0.14645 -0.0853,0 -0.11436,0.0659 -0.0646,0.14645 0.0498,0.0805 0.11958,0.14645 0.1551,0.14645 0.0355,0 0.0646,-0.0659 0.0646,-0.14645 z m -0.14646,-0.65038 c 0,-0.47465 -0.26248,-0.61643 -0.51766,-0.2796 -0.30996,0.40913 -0.25574,0.63708 0.15154,0.63708 0.29054,0 0.36612,-0.0738 0.36612,-0.35748 z m -35.57891,-0.7217 c 0.18887,-0.844 0.0756,-2.43489 -0.17336,-2.43489 -0.084,0 -0.13121,0.46812 -0.11375,1.12762 0.0197,0.74431 -0.0275,1.14671 -0.13876,1.18381 -0.18089,0.0603 -0.23249,0.65135 -0.071,0.81286 0.21683,0.21683 0.3288,0.0614 0.49684,-0.6894 z m 6.17869,-0.56763 c 0.0372,-0.10069 -0.0463,-0.30132 -0.18584,-0.44585 -0.2217,-0.22972 -0.26454,-0.23433 -0.3404,-0.0366 -0.11472,0.29896 0.0341,0.66552 0.27014,0.66552 0.10359,0 0.21883,-0.0824 0.2561,-0.18306 z m 28.34187,-0.31513 c 0.13597,-0.29842 0.12287,-0.34637 -0.0863,-0.31626 -0.13563,0.0195 -0.26766,0.1778 -0.2934,0.35174 -0.0629,0.42492 0.18031,0.40219 0.37973,-0.0355 z m -33.65053,-0.16948 c 0,-0.12558 -0.0659,-0.18759 -0.14645,-0.13781 -0.0806,0.0498 -0.14645,0.15253 -0.14645,0.22832 0,0.0758 0.0659,0.13781 0.14645,0.13781 0.0806,0 0.14645,-0.10274 0.14645,-0.22832 z m 2.29681,-0.67784 c -0.0467,-0.11683 -0.0815,-0.0821 -0.0885,0.0885 -0.006,0.15438 0.0282,0.24088 0.0769,0.19221 0.0486,-0.0487 0.0539,-0.17497 0.0116,-0.28069 z m -4.53998,-0.29291 c -0.0467,-0.11683 -0.0815,-0.0821 -0.0885,0.0885 -0.006,0.15439 0.0282,0.24089 0.0769,0.19222 0.0486,-0.0487 0.0539,-0.17498 0.0116,-0.2807 z m 6.78315,-0.14828 c 0,-0.23658 -0.0433,-0.27888 -0.16298,-0.15921 -0.0896,0.0896 -0.1187,0.23463 -0.0645,0.32219 0.15149,0.24511 0.22756,0.19063 0.22756,-0.16298 z m 23.50539,0.0293 c 0,-0.1074 -0.0824,-0.22273 -0.18307,-0.25629 -0.1089,-0.0363 -0.18306,0.0675 -0.18306,0.25629 0,0.18876 0.0742,0.29259 0.18306,0.25629 0.10068,-0.0336 0.18307,-0.14889 0.18307,-0.25629 z m 4.97995,-0.44035 c 0.0501,-0.0811 -0.0592,-0.35852 -0.24286,-0.61649 l -0.33398,-0.46904 -0.10288,0.50304 c -0.0566,0.27666 -0.0713,0.55408 -0.0328,0.61648 0.10115,0.16367 0.60518,0.13962 0.71248,-0.034 z m -35.07563,-4.68543 c 0,-2.92902 -0.052,-4.53998 -0.14645,-4.53998 -0.0945,0 -0.14646,1.61096 -0.14646,4.53998 0,2.92902 0.052,4.53998 0.14646,4.53998 0.0945,0 0.14645,-1.61096 0.14645,-4.53998 z m 2.63612,-2.26999 c 0,-4.44235 -0.0509,-6.80997 -0.14646,-6.80997 -0.0955,0 -0.14645,2.36762 -0.14645,6.80997 0,4.44234 0.0509,6.80997 0.14645,6.80997 0.0955,0 0.14646,-2.36763 0.14646,-6.80997 z m 3.41926,6.22602 c 0.0481,-0.24062 0.0332,-0.58417 -0.0331,-0.76344 l -0.12058,-0.32595 -0.16703,0.3121 c -0.16935,0.31645 -0.0781,1.21479 0.12334,1.21479 0.0604,0 0.14921,-0.19688 0.19734,-0.4375 z m 28.18062,-0.12095 c 0.0357,-0.10702 -0.0313,-0.13975 -0.17391,-0.085 -0.12755,0.049 -0.23192,0.15334 -0.23192,0.23198 0,0.1925 0.33286,0.072 0.40583,-0.14696 z m -6.92289,-1.89685 c -0.0805,-0.0592 -0.14646,-0.2385 -0.14646,-0.39849 0,-0.16061 -0.11478,-0.313 -0.25628,-0.34025 -0.17592,-0.0339 -0.25629,0.0436 -0.25629,0.247 0,0.163 0.11533,0.36354 0.25629,0.44564 0.30051,0.17503 0.62948,0.21269 0.40274,0.0461 z m -16.82421,-0.99309 c -0.19824,-0.51663 -0.58728,-0.12503 -0.44378,0.44671 0.095,0.37866 0.0963,0.37894 0.31045,0.0732 0.11826,-0.16885 0.17826,-0.40279 0.13333,-0.51988 z m 0.78782,-0.75944 c 0,-0.33491 -0.042,-0.36036 -0.45766,-0.27724 -0.2517,0.0503 -0.54827,0.0915 -0.65902,0.0915 -0.11076,0 -0.20138,0.1033 -0.20138,0.22955 0,0.15709 0.0859,0.20227 0.27223,0.14314 0.15454,-0.049 0.3491,0.006 0.45006,0.12788 0.25188,0.30349 0.59577,0.12174 0.59577,-0.31487 z m 19.83129,-0.12782 c 0.12695,-0.0487 0.19435,-0.14757 0.14979,-0.21968 -0.0446,-0.0721 -0.0112,-0.1311 0.0741,-0.1311 0.0853,0 0.15509,0.0659 0.15509,0.14644 0,0.21885 0.2835,0.17678 0.54047,-0.0802 0.27201,-0.272 0.13947,-0.47314 -0.15224,-0.23104 -0.25535,0.21192 -0.72444,0.0495 -0.62272,-0.21554 0.0414,-0.10785 0.0151,-0.23325 -0.0584,-0.27867 -0.19054,-0.11776 -0.63476,0.61319 -0.53331,0.87755 0.0953,0.24825 0.1233,0.25654 0.44723,0.13223 z m -25.24997,-0.42401 c 0,-0.12082 -0.0659,-0.21968 -0.14646,-0.21968 -0.0806,0 -0.14645,0.0988 -0.14645,0.21968 0,0.12082 0.0659,0.21967 0.14645,0.21967 0.0806,0 0.14646,-0.0988 0.14646,-0.21967 z m 24.83542,-0.95193 c 0.27925,0 0.26319,-0.36293 -0.029,-0.65511 -0.30836,-0.30836 -0.52814,-0.22365 -0.65552,0.25264 -0.11594,0.4335 -0.024,0.59463 0.2741,0.48025 0.11148,-0.0428 0.29616,-0.0778 0.41039,-0.0778 z m -5.7968,-0.14645 c 0,-0.0806 -0.0659,-0.14645 -0.14645,-0.14645 -0.0806,0 -0.14645,0.0659 -0.14645,0.14645 0,0.0805 0.0659,0.14645 0.14645,0.14645 0.0805,0 0.14645,-0.0659 0.14645,-0.14645 z m -0.59965,-0.7109 c -0.21644,-0.0744 -0.32639,0.0765 -0.20219,0.27744 0.0787,0.1274 0.13812,0.12045 0.22965,-0.0269 0.0725,-0.11671 0.0612,-0.2201 -0.0275,-0.25057 z m -11.86711,-0.0558 c -0.15436,-0.28842 -0.42092,-0.22053 -0.42092,0.1072 0,0.11106 0.12682,0.19238 0.28182,0.1807 0.22549,-0.017 0.25329,-0.0745 0.1391,-0.2879 z m 12.07038,-0.72168 c 0.27699,-0.48658 0.21745,-0.65269 -0.26265,-0.73277 -0.22743,-0.0379 -0.30352,0.0439 -0.34043,0.36626 -0.0524,0.45802 0.049,0.83023 0.226,0.8288 0.0629,-5.3e-4 0.23262,-0.20855 0.37708,-0.46229 z m -0.93531,-1.09095 c -0.12121,-0.14605 -0.22701,-0.16763 -0.32779,-0.0669 -0.10077,0.10077 -0.0579,0.33729 0.13293,0.73273 l 0.28172,0.58393 0.0461,-0.51707 c 0.0253,-0.28439 -0.0345,-0.61412 -0.13292,-0.73273 z m -11.62054,0.1453 c -0.10739,-0.42788 -0.3748,-0.32559 -0.3748,0.14338 0,0.42844 0.34354,0.8061 0.4157,0.457 0.0272,-0.13191 0.009,-0.40208 -0.0409,-0.60038 z m 1.07443,-0.0842 c -0.24216,-0.45247 -0.33235,-0.12576 -0.11294,0.40911 0.13068,0.31854 0.18919,0.36268 0.23375,0.17631 0.0327,-0.13674 -0.0217,-0.40018 -0.12081,-0.58542 z m 0.60108,-0.78767 c 0,-0.4807 -0.48994,-0.43792 -0.55938,0.0489 -0.0355,0.24914 0.0261,0.32802 0.25629,0.32802 0.22797,0 0.30309,-0.0934 0.30309,-0.37686 z m 9.05733,0.0183 c 0.0324,-0.16695 -0.0204,-0.23737 -0.14644,-0.1954 -0.10839,0.0361 -0.21982,0.18307 -0.24766,0.32663 -0.0324,0.16696 0.0204,0.23738 0.14646,0.19541 0.10837,-0.0361 0.21982,-0.18308 0.24764,-0.32664 z m 1.31332,0.10223 c -0.0596,-0.31244 -0.70489,-0.44467 -0.70489,-0.14443 0,0.28013 0.1428,0.40072 0.4745,0.40072 0.18691,0 0.26308,-0.0847 0.23039,-0.25629 z m -15.88088,-0.29989 c 0.0397,-0.0643 0.0134,-0.21199 -0.0584,-0.32829 -0.0988,-0.15984 -0.17196,-0.17019 -0.29976,-0.0424 -0.093,0.093 -0.1248,0.24072 -0.0707,0.32828 0.11564,0.18713 0.3266,0.20797 0.42893,0.0424 z m 19.56952,-0.46897 c 0,-0.32219 -0.0607,-0.58581 -0.13481,-0.58581 -0.17018,0 -0.35775,0.82058 -0.23352,1.02159 0.19937,0.32259 0.36833,0.12269 0.36833,-0.43578 z m -26.94697,0.21103 c 0,-0.12558 -0.067,-0.18692 -0.14884,-0.13633 -0.0818,0.0506 -0.11094,0.15333 -0.0645,0.22832 0.12554,0.20313 0.21343,0.16526 0.21343,-0.092 z m 8.50241,-0.1012 c 0.29645,-0.35535 0.37231,-0.91707 0.14298,-1.0588 -0.0779,-0.0482 -0.22348,0.0435 -0.32348,0.20358 -0.13922,0.22293 -0.228,0.25282 -0.3789,0.12758 -0.1509,-0.12523 -0.27244,-0.0845 -0.51862,0.17405 -0.17684,0.18569 -0.25562,0.30333 -0.17508,0.26143 0.2392,-0.12443 0.80549,0.15488 0.80549,0.39728 0,0.31044 0.12554,0.28096 0.44761,-0.10512 z m 1.08387,0.19319 c 0.0463,-0.075 0.0173,-0.17773 -0.0645,-0.22832 -0.0819,-0.0506 -0.14884,0.0107 -0.14884,0.13633 0,0.25725 0.0879,0.29512 0.21342,0.092 z m 1.25109,-0.15657 c 0,-0.1611 -0.0659,-0.2929 -0.14646,-0.2929 -0.0806,0 -0.14645,0.1318 -0.14645,0.2929 0,0.16109 0.0659,0.2929 0.14645,0.2929 0.0806,0 0.14646,-0.13181 0.14646,-0.2929 z m -10.39802,-1.03097 c 0,-0.065 -0.19772,-0.31582 -0.43935,-0.55746 l -0.43936,-0.43935 v 0.47202 c 0,0.25961 0.0715,0.54348 0.1588,0.63082 0.17046,0.17046 0.71991,0.0895 0.71991,-0.10603 z m 7.90834,-0.73509 c 0,-0.0758 -0.0659,-0.1378 -0.14644,-0.1378 -0.0806,0 -0.14645,0.10274 -0.14645,0.22832 0,0.12557 0.0659,0.18758 0.14645,0.1378 0.0806,-0.0498 0.14644,-0.15252 0.14644,-0.22832 z m 1.3624,0.19171 c 0.16724,-0.29811 0.2216,-0.86843 0.10131,-1.06299 -0.2549,-0.41231 -0.66839,0.26765 -0.60186,0.98976 0.0182,0.19763 0.39947,0.25341 0.50055,0.0732 z m 3.99602,-0.43861 c -0.15999,-0.15999 -0.26969,0.0944 -0.15483,0.35907 0.10891,0.25092 0.11681,0.25069 0.17749,-0.005 0.035,-0.14727 0.0248,-0.30653 -0.0227,-0.35392 z m -4.75653,-0.20829 c 0.12967,-0.26845 0.32427,-0.6858 0.43244,-0.92745 0.10819,-0.24164 0.22569,-0.49771 0.26113,-0.56903 0.0354,-0.0713 -0.13911,0.0208 -0.38786,0.2047 -0.36504,0.26989 -0.43708,0.41031 -0.37352,0.72812 0.0504,0.25237 -0.005,0.47748 -0.15444,0.62693 -0.12825,0.12826 -0.23318,0.30769 -0.23318,0.39875 0,0.26758 0.20201,0.0626 0.45543,-0.46202 z m 1.84282,-0.22902 c -0.0371,-0.14249 -0.0699,-0.0614 -0.0729,0.18028 -0.003,0.24164 0.0274,0.35823 0.0676,0.25908 0.0401,-0.0992 0.0425,-0.29687 0.005,-0.43936 z m 9.64513,-0.0634 c 0.13479,-0.42469 -0.32439,-0.8914 -0.68641,-0.69766 -0.21041,0.11261 -0.25277,0.24168 -0.17869,0.54448 0.16198,0.66213 0.67475,0.75292 0.8651,0.15318 z m -6.16546,-0.29239 c 0.51753,-0.2358 0.47902,-0.5623 -0.0663,-0.5623 -0.29291,0 -0.43936,-0.0732 -0.43936,-0.21967 0,-0.12082 -0.0659,-0.21968 -0.14645,-0.21968 -0.0806,0 -0.14645,0.095 -0.14645,0.21103 0,0.11607 0.0659,0.25177 0.14645,0.30155 0.0806,0.0498 0.14645,0.21843 0.14645,0.37477 0,0.33315 0.0169,0.33698 0.50569,0.1143 z m 6.93072,-0.64383 c 0.20843,-0.14598 0.3255,-0.3799 0.3255,-0.65038 0,-0.6282 -0.25452,-0.6686 -0.50067,-0.0795 -0.11915,0.28516 -0.28591,0.51848 -0.37057,0.51848 -0.0847,0 -0.15392,0.0989 -0.15392,0.21968 0,0.28337 0.28813,0.27994 0.69966,-0.008 z m -20.95631,-0.38528 c -0.0467,-0.11683 -0.0815,-0.0821 -0.0885,0.0885 -0.006,0.15438 0.0282,0.24088 0.0769,0.19222 0.0486,-0.0487 0.0539,-0.17498 0.0116,-0.2807 z m 14.92686,-0.20419 c -0.0489,-0.12741 -0.0889,-0.30535 -0.0889,-0.39542 0,-0.11946 -0.0449,-0.11888 -0.16589,0.002 -0.19178,0.19177 -0.0691,0.62494 0.17697,0.62494 0.0918,0 0.1268,-0.10402 0.0779,-0.23166 z m 1.22917,-0.14312 c 0,-0.12558 -0.067,-0.18693 -0.14885,-0.13633 -0.0819,0.0506 -0.11093,0.15334 -0.0645,0.22832 0.12555,0.20313 0.21343,0.16526 0.21343,-0.092 z m 3.36837,-0.13781 c 0,-0.12082 -0.062,-0.21967 -0.13781,-0.21967 -0.18467,0 -0.31694,0.22869 -0.19993,0.3457 0.16493,0.16493 0.33774,0.10044 0.33774,-0.12603 z m 1.02515,0.0732 c 0,-0.0805 -0.0659,-0.14645 -0.14645,-0.14645 -0.0806,0 -0.14645,0.0659 -0.14645,0.14645 0,0.0805 0.0659,0.14645 0.14645,0.14645 0.0806,0 0.14645,-0.0659 0.14645,-0.14645 z m 1.70493,-0.98097 c 0.52482,-0.0882 0.83592,-0.54384 0.81735,-1.19701 -0.0159,-0.55788 0.45588,-0.7198 0.77397,-0.26567 0.12021,0.17164 0.21858,0.22928 0.21858,0.12809 0,-0.14964 -0.79423,-1.0528 -0.92582,-1.0528 -0.0204,0 -0.0468,0.12929 -0.0587,0.28731 -0.0268,0.35634 -0.48654,1.3618 -0.68419,1.49649 -0.0804,0.0548 -0.26508,0.036 -0.41037,-0.0418 -0.47126,-0.25221 -0.25779,-1.59558 0.25355,-1.59558 0.26249,0 0.28191,-0.34756 0.031,-0.55577 -0.12875,-0.10684 -0.25982,-0.0965 -0.43936,0.0348 -0.19497,0.14257 -0.25588,0.39908 -0.25588,1.07764 0,0.48979 -0.0659,0.93125 -0.14644,0.98104 -0.0806,0.0498 -0.14646,0.29138 -0.14646,0.53688 0,0.3661 0.0461,0.42816 0.25629,0.34503 0.14096,-0.0557 0.46334,-0.13616 0.71639,-0.17871 z m -10.88018,-0.41499 c -0.12403,-0.32323 -0.32803,-0.25853 -0.24048,0.0763 0.0419,0.16019 0.1317,0.25693 0.19958,0.21498 0.0678,-0.042 0.0863,-0.17301 0.0409,-0.29125 z m 1.3278,-0.74829 c 0.0771,-0.20099 0.0557,-0.21006 -0.13078,-0.0553 -0.25412,0.21091 -0.28057,0.29569 -0.0922,0.29569 0.0719,0 0.17229,-0.10818 0.22303,-0.24039 z m 9.75131,-0.19896 c 0,-0.30887 -0.21306,-0.3941 -0.36613,-0.14645 -0.10679,0.1728 0.0318,0.43936 0.22833,0.43936 0.0758,0 0.1378,-0.13181 0.1378,-0.29291 z m -9.34719,-0.91188 c 0.0662,-0.10258 0.10402,-0.27989 0.084,-0.39404 -0.065,-0.37027 -0.3471,-0.3226 -0.5557,0.0939 -0.11197,0.22359 -0.2267,0.45305 -0.25495,0.50989 -0.0911,0.18334 0.60203,-0.0167 0.72665,-0.20976 z m 9.5787,-1.24864 c -0.15953,-0.15954 -0.22009,0.0491 -0.11886,0.40951 l 0.10102,0.35973 0.0514,-0.34209 c 0.0283,-0.18815 0.0132,-0.38037 -0.0336,-0.42715 z m -9.84301,-0.006 c 0.10703,-0.17317 -0.36142,-1.06431 -0.51091,-0.97192 -0.15065,0.0931 -0.17465,0.84692 -0.0315,0.99005 0.13371,0.13371 0.45523,0.12296 0.54243,-0.0181 z m 9.45073,-0.49189 c 0.2004,-0.57487 0.20108,-0.56395 -0.0354,-0.56395 -0.22707,0 -0.5802,0.68885 -0.45608,0.88968 0.15605,0.2525 0.33011,0.13713 0.49146,-0.32573 z m -7.16178,-0.4175 c 0,-0.0806 -0.029,-0.14645 -0.0645,-0.14645 -0.0355,0 -0.10531,0.0659 -0.15509,0.14645 -0.0498,0.0805 -0.0208,0.14645 0.0645,0.14645 0.0853,0 0.15509,-0.0659 0.15509,-0.14645 z m 4.28951,-0.2929 c 0.0443,-0.16921 0.005,-0.29291 -0.0941,-0.29291 -0.0939,0 -0.25305,-0.1318 -0.35366,-0.2929 -0.25098,-0.40188 -0.47334,-0.36748 -0.47334,0.0732 0,0.23115 0.0827,0.36613 0.22428,0.36613 0.12335,0 0.2622,0.0988 0.30856,0.21968 0.11797,0.30742 0.29762,0.27354 0.3883,-0.0732 z m 1.86144,0.0732 c -0.18623,-0.22439 -0.0528,-0.27935 0.5858,-0.24129 0.14878,0.009 0.1603,-0.0132 0.0357,-0.0684 -0.10118,-0.0448 -0.14673,-0.14175 -0.10119,-0.21542 0.0455,-0.0737 0.013,-0.13394 -0.0723,-0.13394 -0.0853,0 -0.15511,-0.10493 -0.15511,-0.23319 0,-0.12825 -0.1318,-0.40075 -0.29289,-0.60555 -0.1611,-0.2048 -0.29291,-0.33117 -0.29291,-0.28083 0,0.0504 -0.1318,-0.0213 -0.2929,-0.15924 -0.1611,-0.13794 -0.2929,-0.40091 -0.2929,-0.58438 0,-0.18346 -0.0659,-0.33357 -0.14645,-0.33357 -0.0806,0 -0.14746,0.31303 -0.14869,0.69564 -9.1e-4,0.3826 -0.0661,0.79449 -0.14421,0.91532 -0.0781,0.12082 -0.14399,0.15377 -0.14645,0.0732 -0.003,-0.0805 -0.0633,-0.0536 -0.13515,0.06 -0.0718,0.11351 -0.0974,0.29305 -0.0567,0.39897 0.0593,0.15444 0.11666,0.14982 0.28982,-0.0233 0.27261,-0.27261 0.62589,-0.26833 0.99682,0.0121 0.2435,0.18408 0.26087,0.26409 0.10983,0.50594 -0.24337,0.3897 -0.22896,0.4377 0.13143,0.4377 0.25969,0 0.28083,-0.0362 0.12852,-0.21967 z m -5.41095,-0.25623 c -0.005,-0.0604 -0.0103,-0.35697 -0.0135,-0.65903 l -0.005,-0.54919 -0.21395,0.49278 c -0.27601,0.63573 -0.27143,0.93195 0.0135,0.87263 0.12509,-0.026 0.22394,-0.0968 0.21969,-0.15719 z m -0.86884,-1.3971 c 0.32458,-0.36968 0.40718,-0.57413 0.32791,-0.81166 -0.0583,-0.17464 -0.10808,-0.43285 -0.11067,-0.57381 -0.006,-0.3726 -0.48876,-0.31527 -0.61559,0.0732 -0.0592,0.18123 -0.0921,0.60085 -0.0732,0.93248 0.0241,0.42314 -0.0309,0.62797 -0.18419,0.68682 -0.18369,0.0705 -0.19111,0.17285 -0.0464,0.64187 l 0.17205,0.55801 0.0482,-0.5064 c 0.0286,-0.30104 0.22411,-0.70678 0.48203,-1.00054 z m 0.12884,0.92113 c 0,-0.12082 -0.0549,-0.21967 -0.12204,-0.21967 -0.0671,0 -0.12204,0.0988 -0.12204,0.21967 0,0.12082 0.0549,0.21968 0.12204,0.21968 0.0671,0 0.12204,-0.0989 0.12204,-0.21968 z m 3.66128,-0.98122 c 0,-0.23658 -0.0433,-0.27888 -0.16298,-0.15921 -0.0896,0.0896 -0.11871,0.23463 -0.0645,0.32219 0.15148,0.24512 0.22756,0.19063 0.22756,-0.16298 z m 0.41583,-0.84951 c -0.10953,-0.24744 -0.30672,-0.43926 -0.45158,-0.43926 -0.35998,0 -0.32132,0.18552 0.14559,0.69892 0.45776,0.50333 0.59295,0.38862 0.30599,-0.25966 z m 0.56292,0.11909 c -0.0467,-0.11683 -0.0815,-0.0821 -0.0885,0.0885 -0.006,0.15438 0.0282,0.24088 0.0769,0.19222 0.0486,-0.0487 0.0539,-0.17498 0.0116,-0.2807 z m -3.17551,-2.39763 c 0,-0.39393 -0.25343,-0.48431 -0.3864,-0.13781 -0.11255,0.29331 0.0535,0.70101 0.23891,0.58645 0.0811,-0.0501 0.14749,-0.25202 0.14749,-0.44864 z m -0.58806,-0.028 c -9.1e-4,-0.0604 -0.0661,-0.20869 -0.1442,-0.32951 -0.1148,-0.17764 -0.14239,-0.15662 -0.14421,0.10984 -9.1e-4,0.18123 0.0636,0.32951 0.14421,0.32951 0.0806,0 0.14544,-0.0494 0.1442,-0.10984 z m 1.17386,-1.06177 c 0,-0.50512 -0.0382,-0.52672 -0.36072,-0.20416 -0.18159,0.18159 -0.19658,0.28172 -0.0657,0.43936 0.26991,0.32521 0.42648,0.23886 0.42648,-0.2352 z m 0.60176,-0.979 c -0.0578,-0.21626 -0.17573,-0.41672 -0.26199,-0.44547 -0.27245,-0.0908 -0.31871,0.70515 -0.0666,1.14495 l 0.23936,0.41744 0.0972,-0.36186 c 0.0534,-0.19902 0.0499,-0.5388 -0.008,-0.75506 z"
         id="path10" /><path
         style="fill:#000000;fill-opacity:1;stroke:none;stroke-width:0.290591;stroke-linecap:square;stroke-opacity:1"
         d="m -113.68712,80.51474 -22.62901,-37.23923 -5.42343,9.1149 -4.09833,-6.58761 9.52176,-15.4752 12.6382,20.44842 1.12778,10.66742 V 43.27549 h 3.67721 l 1.52879,2.27972 -1.52879,0.12045 V 58.661 l 13.74298,21.73328 z"
         id="path11" /></g></g></svg>
