<?xml version="1.0" encoding="UTF-8" standalone="no"?>
<!-- Created with Inkscape (http://www.inkscape.org/) -->

<svg
   width="132.06322mm"
   height="99.421051mm"
   viewBox="0 0 132.06322 99.421051"
   version="1.1"
   id="svg1"
   xml:space="preserve"
   inkscape:version="1.4 (86a8ad7, 2024-10-11)"
   sodipodi:docname="arquivos.svg"
   xmlns:inkscape="http://www.inkscape.org/namespaces/inkscape"
   xmlns:sodipodi="http://sodipodi.sourceforge.net/DTD/sodipodi-0.dtd"
   xmlns="http://www.w3.org/2000/svg"
   xmlns:svg="http://www.w3.org/2000/svg"><sodipodi:namedview
     id="namedview1"
     pagecolor="#ffffff"
     bordercolor="#000000"
     borderopacity="0.25"
     inkscape:showpageshadow="2"
     inkscape:pageopacity="0.0"
     inkscape:pagecheckerboard="0"
     inkscape:deskcolor="#d1d1d1"
     inkscape:document-units="mm"
     showguides="true"
     inkscape:zoom="0.31937079"
     inkscape:cx="-14.090205"
     inkscape:cy="167.51689"
     inkscape:window-width="1280"
     inkscape:window-height="961"
     inkscape:window-x="-8"
     inkscape:window-y="-8"
     inkscape:window-maximized="1"
     inkscape:current-layer="layer5"><inkscape:page
       x="0"
       y="-5.0708258e-14"
       width="132.06322"
       height="99.421043"
       id="page2"
       margin="0"
       bleed="0" /></sodipodi:namedview><defs
     id="defs1" /><g
     inkscape:groupmode="layer"
     id="layer5"
     inkscape:label="vetor"
     style="display:inline"
     transform="translate(190.03155,-9.089599)"><g
       id="g5"><g
         id="g6"
         inkscape:export-filename="..\_sslares\assets\img\logo.png"
         inkscape:export-xdpi="96"
         inkscape:export-ydpi="96"><g
           id="path2"
           style="display:inline"
           transform="translate(4.9793335,-16.402511)"><path
             style="color:#000000;font-style:normal;font-variant:normal;font-weight:normal;font-stretch:normal;font-size:medium;line-height:normal;font-family:sans-serif;font-variant-ligatures:normal;font-variant-position:normal;font-variant-caps:normal;font-variant-numeric:normal;font-variant-alternates:normal;font-variant-east-asian:normal;font-feature-settings:normal;font-variation-settings:normal;text-indent:0;text-align:start;text-decoration-line:none;text-decoration-style:solid;text-decoration-color:#000000;letter-spacing:normal;word-spacing:normal;text-transform:none;writing-mode:lr-tb;direction:ltr;text-orientation:mixed;dominant-baseline:auto;baseline-shift:baseline;text-anchor:start;white-space:normal;shape-padding:0;shape-margin:0;inline-size:0;clip-rule:nonzero;display:inline;overflow:visible;visibility:visible;isolation:auto;mix-blend-mode:normal;color-interpolation:sRGB;color-interpolation-filters:linearRGB;solid-color:#000000;solid-opacity:1;vector-effect:none;fill:#ed0132;fill-opacity:1;fill-rule:nonzero;stroke:none;stroke-linecap:square;stroke-linejoin:miter;stroke-miterlimit:4;stroke-dasharray:none;stroke-dashoffset:0;stroke-opacity:1;-inkscape-stroke:none;color-rendering:auto;image-rendering:auto;shape-rendering:auto;text-rendering:auto;enable-background:accumulate;stop-color:#000000;stop-opacity:1"
             d="m -195.01089,80.52168 15.11924,-23.86977 0.0259,-0.0518 -0.0518,-14.31669 -1.63101,-0.18122 1.63101,-2.40769 h 4.03871 l 0.0397,20.16464 1.17161,-11.86253 13.92624,-22.50451 33.93562,55.15378 -9.59986,-0.033 -24.33578,-40.90003 -24.85355,40.90003 z"
             id="path3" /></g><g
           id="g9"
           transform="translate(-191.36377,172.48452)"
           style="display:inline"><path
             id="rect5"
             style="display:inline;fill:#000000;fill-opacity:1;stroke:none;stroke-width:0.264583;stroke-linecap:square;stroke-linejoin:miter;stroke-dasharray:none;stroke-opacity:1"
             d="m 32.23012,-128.29073 v 4.69894 h 2.537313 v -4.69894 z m 4.219897,0 v 4.69894 h 2.537313 v -4.69894 z m -4.219897,7.09363 v 4.69893 h 2.537313 v -4.69893 z m 4.219897,0 v 4.69893 h 2.537313 v -4.69893 z" /></g><path
           d="m -179.37909,108.51064 q -4.43848,0 -6.7132,-2.56323 -2.27472,-2.62019 -2.27472,-7.461853 v -2.27843 h 5.77002 v 2.734119 q 0,3.873324 3.16242,3.873324 1.55347,0 2.33021,-0.91137 0.83221,-0.96833 0.83221,-3.075884 0,-2.506269 -1.10962,-4.385976 -1.10962,-1.936662 -4.1056,-4.613815 -3.77271,-3.417646 -5.27069,-6.151766 -1.49799,-2.791077 -1.49799,-6.265683 0,-4.727743 2.3302,-7.290977 2.3302,-2.620194 6.76868,-2.620194 4.38301,0 6.60224,2.620194 2.27472,2.563234 2.27472,7.404899 v 1.651861 h -5.77002 v -2.050587 q 0,-2.050587 -0.77673,-2.961959 -0.77674,-0.968333 -2.27472,-0.968333 -3.05146,0 -3.05146,3.816371 0,2.164508 1.10962,4.044213 1.16511,1.879705 4.16108,4.556859 3.82818,3.417645 5.27069,6.208728 1.44251,2.791073 1.44251,6.550487 0,4.898622 -2.38569,7.518822 -2.33019,2.62018 -6.82416,2.62018 z m 21.02419,0 q -4.43848,0 -6.71319,-2.56323 -2.27473,-2.62019 -2.27473,-7.461853 v -2.27843 h 5.77003 v 2.734119 q 0,3.873324 3.16242,3.873324 1.55347,0 2.3302,-0.91137 0.83221,-0.96833 0.83221,-3.075884 0,-2.506269 -1.10962,-4.385976 -1.10962,-1.936662 -4.10559,-4.613815 -3.77271,-3.417646 -5.27069,-6.151766 -1.498,-2.791077 -1.498,-6.265683 0,-4.727743 2.33021,-7.290977 2.3302,-2.620194 6.76868,-2.620194 4.38299,0 6.60223,2.620194 2.27473,2.563234 2.27473,7.404899 v 1.651861 h -5.77003 v -2.050587 q 0,-2.050587 -0.77673,-2.961959 -0.77673,-0.968333 -2.27472,-0.968333 -3.05146,0 -3.05146,3.816371 0,2.164508 1.10962,4.044213 1.16511,1.879705 4.16108,4.556859 3.82819,3.417645 5.27069,6.208728 1.44251,2.791073 1.44251,6.550487 0,4.898622 -2.38569,7.518822 -2.3302,2.62018 -6.82416,2.62018 z"
           id="text9"
           style="-inkscape-font-specification:'Bebas Neue';display:inline;fill:#ed0132;stroke-width:0.29059;stroke-linecap:square"
           aria-label="SS" /><path
           d="m -142.36378,68.077721 h 5.00788 v 33.501529 h 8.24025 v 5.58358 h -13.24813 z m 20.02898,0 h 6.7834 l 5.18999,39.085109 h -5.00788 l -0.91052,-7.761184 v 0.111676 h -5.69078 l -0.91052,7.649508 h -4.64368 z m 5.46314,26.131192 -2.23078,-19.319214 h -0.091 l -2.18526,19.319214 z m 9.23924,-26.131192 h 7.42078 q 3.869724,0 5.645246,2.233436 1.775522,2.177598 1.775522,6.756141 v 2.400943 q 0,6.086111 -3.277886,7.705351 v 0.111672 q 1.82105,0.67003 2.549468,2.735958 0.773946,2.065927 0.773946,5.527755 v 6.867813 q 0,1.67507 0.09105,2.73596 0.09106,1.00505 0.45526,2.01008 h -5.098926 q -0.273158,-0.94921 -0.364213,-1.78674 -0.09106,-0.83754 -0.09106,-3.01514 v -7.146989 q 0,-2.680124 -0.728418,-3.741006 -0.68289,-1.060882 -2.412879,-1.060882 h -1.73 v 16.750757 h -5.00789 z m 6.82893,16.750764 q 1.502374,0 2.230793,-0.949209 0.773945,-0.949211 0.773945,-3.182646 v -3.015137 q 0,-2.121764 -0.637371,-3.070974 -0.591844,-0.949209 -1.912097,-0.949209 h -2.27631 v 11.167175 z m 11.834282,-16.750764 h 13.657855 v 5.583589 h -8.649977 v 10.329637 h 6.874455 v 5.583588 h -6.874455 v 12.004715 h 8.649977 v 5.58358 h -13.657855 z m 23.443533,39.643479 q -3.642096,0 -5.50867,-2.51261 -1.866573,-2.56846 -1.866573,-7.314511 v -2.233438 h 4.734724 v 2.68013 q 0,3.796839 2.594993,3.796839 1.274733,0 1.9121,-0.89338 0.682893,-0.94921 0.682893,-3.015135 0,-2.456778 -0.910524,-4.299361 -0.910524,-1.89842 -3.368938,-4.522707 -3.095782,-3.350153 -4.324989,-6.030274 -1.229207,-2.735959 -1.229207,-6.141947 0,-4.634378 1.9121,-7.146993 1.9121,-2.568451 5.554196,-2.568451 3.596569,0 5.417617,2.568451 1.866574,2.512615 1.866574,7.258664 v 1.619241 h -4.734724 v -2.010091 q 0,-2.010093 -0.637367,-2.903467 -0.637367,-0.949209 -1.866574,-0.949209 -2.503941,0 -2.503941,3.741003 0,2.121764 0.910524,3.964347 0.956051,1.842585 3.414464,4.466872 3.141308,3.350152 4.32499,6.086111 1.18368,2.735957 1.18368,6.42113 0,4.801876 -1.957626,7.370336 -1.9121,2.56845 -5.599722,2.56845 z"
           id="text10"
           style="-inkscape-font-specification:'Bebas Neue';display:inline;fill:#ed0132;stroke-width:0.290592;stroke-linecap:square"
           aria-label="LARES" /><path
           style="color:#000000;font-style:normal;font-variant:normal;font-weight:normal;font-stretch:normal;font-size:medium;line-height:normal;font-family:sans-serif;font-variant-ligatures:normal;font-variant-position:normal;font-variant-caps:normal;font-variant-numeric:normal;font-variant-alternates:normal;font-variant-east-asian:normal;font-feature-settings:normal;font-variation-settings:normal;text-indent:0;text-align:start;text-decoration-line:none;text-decoration-style:solid;text-decoration-color:#000000;letter-spacing:normal;word-spacing:normal;text-transform:none;writing-mode:lr-tb;direction:ltr;text-orientation:mixed;dominant-baseline:auto;baseline-shift:baseline;text-anchor:start;white-space:normal;shape-padding:0;shape-margin:0;inline-size:0;clip-rule:nonzero;display:inline;overflow:visible;visibility:visible;isolation:auto;mix-blend-mode:normal;color-interpolation:sRGB;color-interpolation-filters:linearRGB;solid-color:#000000;solid-opacity:1;vector-effect:none;fill:#000000;fill-opacity:1;fill-rule:nonzero;stroke:none;stroke-linecap:square;stroke-linejoin:miter;stroke-miterlimit:4;stroke-dasharray:none;stroke-dashoffset:0;stroke-opacity:1;-inkscape-stroke:none;color-rendering:auto;image-rendering:auto;shape-rendering:auto;text-rendering:auto;enable-background:accumulate;stop-color:#000000;stop-opacity:1"
           d="m -108.70779,64.112229 -22.62901,-37.23923 -5.42343,9.1149 -4.09833,-6.58761 9.52176,-15.4752 12.6382,20.44842 1.12778,10.66742 v -18.16795 h 3.67721 l 1.52879,2.27972 -1.52879,0.12045 v 12.98534 l 13.74298,21.73328 z"
           id="path11" /></g></g></g></svg>
