<?xml version="1.0" encoding="UTF-8" standalone="no"?>
<!-- Created with Inkscape (http://www.inkscape.org/) -->

<svg
   width="276.57849mm"
   height="61.279984mm"
   viewBox="0 0 276.57849 61.279984"
   version="1.1"
   id="svg1"
   xmlns:inkscape="http://www.inkscape.org/namespaces/inkscape"
   xmlns:sodipodi="http://sodipodi.sourceforge.net/DTD/sodipodi-0.dtd"
   xmlns="http://www.w3.org/2000/svg"
   xmlns:svg="http://www.w3.org/2000/svg">
  <sodipodi:namedview
     id="namedview1"
     pagecolor="#ffffff"
     bordercolor="#000000"
     borderopacity="0.25"
     inkscape:showpageshadow="2"
     inkscape:pageopacity="0.0"
     inkscape:pagecheckerboard="0"
     inkscape:deskcolor="#d1d1d1"
     inkscape:document-units="mm"
     showguides="true">
    <inkscape:page
       x="0"
       y="0"
       width="276.57849"
       height="61.279984"
       id="page2"
       margin="0"
       bleed="0" />
  </sodipodi:namedview>
  <defs
     id="defs1" />
  <g
     inkscape:label="Camada 1"
     inkscape:groupmode="layer"
     id="layer1"
     transform="translate(-9.7927631,-321.78702)">
    <g
       id="g9"
       inkscape:export-filename="logo.svg"
       inkscape:export-xdpi="96"
       inkscape:export-ydpi="96"
       transform="translate(0.82845188,113.49791)">
      <path
         id="text3"
         style="font-size:38.1px;line-height:67;font-family:'Times New Roman';-inkscape-font-specification:'Times New Roman, ';text-align:center;letter-spacing:0.264583px;text-anchor:middle;fill:#ffffff;stroke-width:0.264583;stroke-linecap:square"
         d="m 80.7837,208.2891 v 34.67695 h 1.544091 V 208.2891 Z m -71.8193893,4.72529 v 0.68833 c 1.0293943,0 1.7735353,0.12402 2.2324223,0.37207 0.471289,0.23564 0.79375,0.5333 0.967382,0.89297 0.248047,0.4961 0.372071,1.30225 0.372071,2.41845 v 16.48272 c 0,1.41387 -0.136426,2.31924 -0.409278,2.71611 -0.446484,0.64492 -1.203027,0.96739 -2.2696285,0.96739 H 8.9643107 v 0.68833 H 17.74517 v -0.68833 h -0.892969 c -0.992187,0 -1.717724,-0.26045 -2.176611,-0.78135 -0.334863,-0.38448 -0.502295,-1.35186 -0.502295,-2.90215 v -16.85479 l 9.748242,21.22662 h 0.613916 l 9.729639,-21.22662 v 16.85479 c 0,1.41387 -0.136425,2.31924 -0.409277,2.71611 -0.434082,0.64492 -1.190626,0.96739 -2.269629,0.96739 h -0.892969 v 0.68833 h 10.715625 v -0.68833 h -0.874365 c -0.992188,0 -1.717725,-0.26045 -2.176612,-0.78135 -0.347265,-0.38448 -0.520898,-1.35186 -0.520898,-2.90215 v -16.48272 c 0,-1.41386 0.136426,-2.31924 0.409277,-2.71611 0.446485,-0.64492 1.209229,-0.96738 2.288233,-0.96738 h 0.874365 v -0.68833 h -7.14375 l -9.004102,19.73833 -9.152929,-19.73833 z m 34.1415853,0 v 0.68833 h 0.948779 c 0.954981,0 1.674317,0.27285 2.158008,0.81855 0.359668,0.40928 0.539502,1.39527 0.539502,2.95796 v 16.29668 c 0,1.41387 -0.142627,2.33785 -0.427881,2.77193 -0.458886,0.66972 -1.215429,1.00459 -2.269629,1.00459 h -0.948779 v 0.68833 h 11.90625 c 2.840137,0 4.948535,-0.26045 6.325195,-0.78135 1.389062,-0.5333 2.480469,-1.37046 3.274219,-2.51148 0.79375,-1.15342 1.190625,-2.35645 1.190625,-3.60908 0,-1.64951 -0.601514,-3.04478 -1.804541,-4.18579 -0.868164,-0.81856 -2.176612,-1.41387 -3.925342,-1.78594 1.500684,-0.48369 2.635498,-1.22163 3.404444,-2.21382 0.768945,-1.00458 1.153418,-2.1394 1.153418,-3.40444 0,-1.47588 -0.489893,-2.77812 -1.469678,-3.90674 -0.979785,-1.14101 -2.399854,-1.93476 -4.260205,-2.38125 -1.227832,-0.29765 -2.858741,-0.44648 -4.892725,-0.44648 z m 10.566797,1.24643 c 2.306835,0 4.061767,0.5209 5.264795,1.5627 1.203027,1.04179 1.804541,2.30063 1.804541,3.77651 0,0.95498 -0.241846,1.83555 -0.725537,2.6417 -0.483692,0.80616 -1.184424,1.40767 -2.102198,1.80454 -0.905371,0.38448 -2.263427,0.57671 -4.074169,0.57671 -0.706934,0 -1.358057,-0.0186 -1.95337,-0.0558 -0.58291,-0.0496 -1.103808,-0.11782 -1.562695,-0.20464 v -9.69243 c 0.992187,-0.27285 2.108398,-0.40928 3.348633,-0.40928 z m -0.05581,11.6458 c 1.773536,0 3.261817,0.26045 4.464844,0.78135 1.203027,0.5209 2.071191,1.23404 2.604492,2.13941 0.533301,0.90537 0.799951,1.84794 0.799951,2.82773 0,1.48828 -0.589111,2.74092 -1.767334,3.75791 -1.178222,1.00459 -2.889746,1.50689 -5.13457,1.50689 -1.401465,0 -2.821533,-0.16744 -4.260205,-0.5023 v -10.34355 c 0.334863,-0.062 0.775147,-0.10543 1.32085,-0.13023 0.545703,-0.0248 1.203027,-0.0372 1.971972,-0.0372 z m 39.213111,25.369 -3.319178,1.41283 0.15813,0.44184 c 0.348524,-0.13458 0.627973,-0.20206 0.838709,-0.20206 0.194525,0 0.356592,0.055 0.486275,0.16433 0.129687,0.10934 0.222836,0.31526 0.27957,0.61805 0.06484,0.3028 0.09715,1.11448 0.09715,2.435 v 2.13217 c -0.640312,-0.64765 -1.450645,-0.97152 -2.431376,-0.97152 -1.580517,0 -2.873269,0.68973 -3.878316,2.06912 -1.005047,1.37098 -1.507402,2.8849 -1.507402,4.54184 0,1.65695 0.45389,3.01543 1.361674,4.07521 0.907784,1.05136 1.969552,1.57665 3.185336,1.57665 0.599786,0 1.158683,-0.12595 1.677417,-0.37828 0.518734,-0.26074 1.049618,-0.68558 1.592667,-1.27434 v 1.65262 h 0.559656 l 3.306775,-1.42524 -0.133842,-0.44183 c -0.364735,0.14299 -0.656558,0.21445 -0.875399,0.21445 -0.178315,0 -0.336084,-0.059 -0.473873,-0.17673 -0.129683,-0.11775 -0.22713,-0.32366 -0.291972,-0.61805 -0.05674,-0.30279 -0.08527,-1.13097 -0.08527,-2.48512 v -13.36094 z m 6.129858,0 c -0.348522,0 -0.644126,0.12594 -0.887284,0.37827 -0.235052,0.24392 -0.352434,0.54282 -0.352434,0.89607 0,0.35326 0.121163,0.65614 0.364319,0.90847 0.243156,0.25233 0.534979,0.37827 0.875399,0.37827 0.34042,0 0.628464,-0.12594 0.863513,-0.37827 0.243155,-0.25233 0.364835,-0.55521 0.364835,-0.90847 0,-0.35325 -0.12168,-0.65215 -0.364835,-0.89607 -0.235049,-0.25233 -0.523093,-0.37827 -0.863513,-0.37827 z m 15.555638,0 c -0.34852,0 -0.64464,0.12594 -0.8878,0.37827 -0.23505,0.24392 -0.35243,0.54282 -0.35243,0.89607 0,0.35326 0.12168,0.65614 0.36483,0.90847 0.24316,0.25233 0.53498,0.37827 0.8754,0.37827 0.34042,0 0.62795,-0.12594 0.863,-0.37827 0.24315,-0.25233 0.36483,-0.55521 0.36483,-0.90847 0,-0.35325 -0.12168,-0.65215 -0.36483,-0.89607 -0.23505,-0.25233 -0.52258,-0.37827 -0.863,-0.37827 z m 48.65388,0 -3.31866,1.41283 0.15761,0.44184 c 0.34853,-0.13458 0.6285,-0.20206 0.83923,-0.20206 0.19452,0 0.35659,0.055 0.48627,0.16433 0.12969,0.10934 0.22283,0.31526 0.27957,0.61805 0.0649,0.3028 0.0971,1.11448 0.0971,2.435 v 2.13217 c -0.64031,-0.64765 -1.45064,-0.97152 -2.43137,-0.97152 -1.58052,0 -2.87327,0.68973 -3.87832,2.06912 -1.00504,1.37098 -1.50792,2.8849 -1.50792,4.54184 0,1.65695 0.4539,3.01543 1.36168,4.07521 0.90778,1.05136 1.96955,1.57665 3.18533,1.57665 0.59979,0 1.1592,-0.12595 1.67794,-0.37828 0.51872,-0.26074 1.04961,-0.68558 1.59266,-1.27434 v 1.65262 h 0.55914 l 3.30729,-1.42524 -0.13384,-0.44183 c -0.36473,0.14299 -0.65655,0.21445 -0.8754,0.21445 -0.17831,0 -0.3366,-0.059 -0.47439,-0.17673 -0.12967,-0.11775 -0.2266,-0.32366 -0.29145,-0.61805 -0.0567,-0.30279 -0.0853,-1.13097 -0.0853,-2.48512 v -13.36094 z m -52.96059,0.0253 c -0.91589,0 -1.7429,0.24789 -2.48047,0.74414 -0.72947,0.48783 -1.27221,1.1316 -1.62884,1.93063 -0.35663,0.79904 -0.53485,1.77466 -0.53485,2.92696 v 0.75705 h -2.16421 v 0.90796 h 2.16421 v 7.5954 c 0,0.82427 -0.0528,1.37905 -0.15813,1.66502 -0.0973,0.28597 -0.27979,0.51339 -0.54726,0.68161 -0.26747,0.16822 -0.56307,0.25218 -0.88728,0.25218 h -0.49868 v 0.45424 h 6.65024 v -0.45424 h -1.00872 c -0.50252,0 -0.90417,-0.18492 -1.20406,-0.55501 -0.22695,-0.28597 -0.34004,-0.96721 -0.34004,-2.0438 v -7.5954 h 2.86908 v -0.90796 h -2.86908 v -0.83302 c 0,-1.79994 0.0566,-2.91451 0.17002,-3.34346 0.11347,-0.43737 0.29977,-0.75674 0.55914,-0.9586 0.25937,-0.21027 0.57542,-0.31523 0.94826,-0.31523 0.308,0 0.58797,0.08 0.83923,0.23978 0.25126,0.15981 0.52641,0.47068 0.8263,0.93328 0.29989,0.45419 0.55133,0.75308 0.75396,0.89607 0.21073,0.13457 0.40941,0.20153 0.59583,0.20153 0.24316,0 0.46984,-0.10946 0.68058,-0.32814 0.21074,-0.22709 0.31626,-0.46649 0.31626,-0.71882 0,-0.47101 -0.23476,-0.89585 -0.70487,-1.27434 -0.71326,-0.57194 -1.49558,-0.85783 -2.34662,-0.85783 z m 101.28942,0 c -0.91589,0 -1.74238,0.24789 -2.47995,0.74414 -0.72947,0.48783 -1.27273,1.1316 -1.62936,1.93063 -0.35662,0.79904 -0.53485,1.77466 -0.53485,2.92696 v 0.75705 h -2.16421 v 0.90796 h 2.16421 v 7.5954 c 0,0.82427 -0.0528,1.37905 -0.15813,1.66502 -0.0973,0.28597 -0.27978,0.51339 -0.54725,0.68161 -0.26747,0.16822 -0.56308,0.25218 -0.88729,0.25218 h -0.49867 v 0.45424 h 6.65024 v -0.45424 h -1.00873 c -0.50252,0 -0.90365,-0.18492 -1.20354,-0.55501 -0.22694,-0.28597 -0.34055,-0.96721 -0.34055,-2.0438 v -7.5954 h 2.86908 v -0.90796 h -2.86908 v -0.83302 c 0,-1.79994 0.0566,-2.91451 0.17002,-3.34346 0.11347,-0.43737 0.29977,-0.75674 0.55913,-0.9586 0.25937,-0.21027 0.57594,-0.31523 0.94878,-0.31523 0.308,0 0.58745,0.08 0.83871,0.23978 0.25127,0.15981 0.52693,0.47068 0.82682,0.93328 0.2999,0.45419 0.55081,0.75308 0.75345,0.89607 0.21073,0.13457 0.40941,0.20153 0.59583,0.20153 0.24315,0 0.47036,-0.10946 0.68109,-0.32814 0.21074,-0.22709 0.31574,-0.46649 0.31574,-0.71882 0,-0.47101 -0.23476,-0.89585 -0.70486,-1.27434 -0.71326,-0.57194 -1.49558,-0.85783 -2.34663,-0.85783 z m -181.57186,0.80719 v 0.46715 h 0.620117 c 0.624102,0 1.094146,0.18493 1.41025,0.55501 0.226946,0.26915 0.340547,0.93789 0.340547,2.00607 v 11.05153 c 0,0.96725 -0.08885,1.59003 -0.267167,1.86758 -0.291788,0.4626 -0.786581,0.69402 -1.48363,0.69402 H 29.92634 v 0.46664 h 7.368025 c 3.201562,0 5.584095,-0.89167 7.148401,-2.67478 1.394098,-1.59807 2.091346,-3.58731 2.091346,-5.96759 0,-1.7747 -0.393051,-3.3391 -1.179257,-4.69325 -0.7781,-1.35416 -1.811339,-2.32129 -3.100069,-2.90164 -1.280624,-0.58035 -3.153242,-0.87074 -5.617228,-0.87074 z m 7.197493,0.95911 c 1.945253,0 3.537905,0.68124 4.778003,2.0438 1.240098,1.36257 1.860352,3.22534 1.860352,5.58881 0,2.34664 -0.620254,4.20543 -1.860352,5.5764 -1.240098,1.37098 -2.799924,2.05673 -4.680334,2.05673 -0.697049,0 -1.560661,-0.11797 -2.590023,-0.35347 v -14.5464 c 0.9321,-0.24391 1.762885,-0.36587 2.492354,-0.36587 z M 228.45169,253.862 c -0.33231,0.8495 -0.59183,1.43377 -0.77825,1.75339 -0.36474,0.60558 -0.78201,1.13138 -1.25212,1.57716 -0.46199,0.43737 -0.91589,0.74875 -1.36167,0.93379 v 0.41652 h 1.76268 v 7.77161 c 0,0.83268 0.0851,1.45095 0.25528,1.85467 0.17022,0.39531 0.43403,0.70219 0.79065,0.92087 0.35663,0.21027 0.72115,0.31523 1.09399,0.31523 0.55116,0 1.08634,-0.20592 1.60507,-0.61805 0.51873,-0.42054 0.91986,-1.04332 1.20355,-1.86759 h -0.47439 c -0.13779,0.33644 -0.33217,0.59335 -0.58343,0.76998 -0.25127,0.16822 -0.51078,0.25218 -0.77825,0.25218 -0.32421,0 -0.59128,-0.13044 -0.80202,-0.39119 -0.20262,-0.26073 -0.30437,-0.76503 -0.30437,-1.5136 v -7.49411 h 2.60191 v -0.88316 h -2.60191 v -3.7977 z m -174.729387,3.44424 c -1.475149,0 -2.703281,0.55529 -3.684013,1.66553 -0.972626,1.10183 -1.458825,2.64073 -1.458825,4.61729 0,1.82516 0.473824,3.2801 1.422135,4.36511 0.956416,1.07659 2.103773,1.61489 3.441134,1.61489 1.231993,0 2.257154,-0.47082 3.075781,-1.41284 0.818627,-0.95043 1.312904,-2.00152 1.483114,-3.15381 l -0.376722,-0.2527 c -0.364735,1.00931 -0.818624,1.72455 -1.361674,2.14509 -0.534944,0.41214 -1.167055,0.61805 -1.896525,0.61805 -1.094204,0 -2.046668,-0.48781 -2.85719,-1.46348 -0.810518,-0.97566 -1.211646,-2.32165 -1.203544,-4.03748 h 7.695655 c 0,-1.42985 -0.401128,-2.56941 -1.203545,-3.41891 -0.802416,-0.85791 -1.827577,-1.28674 -3.075781,-1.28674 z m 11.321273,0.0124 c -1.458939,0 -2.710787,0.56778 -3.75636,1.70326 -1.037468,1.13547 -1.556494,2.61191 -1.556494,4.42867 0,1.87563 0.470044,3.36405 1.41025,4.46587 0.940205,1.10183 2.042878,1.65262 3.307292,1.65262 1.061783,0 2.029885,-0.40785 2.905249,-1.2237 0.875363,-0.82427 1.463307,-1.99731 1.763199,-3.51968 l -0.352433,-0.17674 c -0.421471,1.01772 -0.855425,1.71995 -1.301212,2.10685 -0.632207,0.56353 -1.34561,0.84543 -2.139921,0.84543 -1.110415,0 -1.993445,-0.52581 -2.649968,-1.57717 -0.648417,-1.05977 -0.973067,-2.2793 -0.973067,-3.65869 0,-1.35415 0.32843,-2.44324 0.984953,-3.2675 0.494418,-0.62241 1.146981,-0.93379 1.957503,-0.93379 0.502523,0 0.895573,0.12646 1.179256,0.37879 0.283686,0.26073 0.445752,0.63908 0.486275,1.13533 0.04863,0.49624 0.141781,0.83261 0.27957,1.00924 0.243156,0.31961 0.603896,0.47955 1.082104,0.47955 0.35663,0 0.632298,-0.097 0.826823,-0.29042 0.202631,-0.20186 0.303858,-0.46276 0.303858,-0.78238 0,-0.64764 -0.352663,-1.2699 -1.057817,-1.86707 -0.705154,-0.60558 -1.604855,-0.90847 -2.69906,-0.90847 z m 11.285616,0 c -0.923995,0 -1.799464,0.25241 -2.626196,0.75706 -0.826732,0.49624 -1.49545,1.26994 -2.006079,2.32131 -0.502523,1.04294 -0.753959,2.09455 -0.753959,3.15432 0,1.45509 0.417282,2.76708 1.252119,3.9362 0.988837,1.3878 2.322493,2.08153 4.000273,2.08153 1.029363,0 1.961374,-0.26889 2.796212,-0.80719 0.842943,-0.5383 1.503583,-1.3375 1.981791,-2.39727 0.478208,-1.05978 0.717269,-2.10687 0.717269,-3.14141 0,-1.47191 -0.433954,-2.7754 -1.301213,-3.91087 -1.021257,-1.32892 -2.374332,-1.99368 -4.060217,-1.99368 z m 23.10505,0 -3.355351,1.41335 0.170015,0.45424 c 0.324209,-0.12616 0.599878,-0.18966 0.826823,-0.18966 0.210736,0 0.376583,0.055 0.498161,0.16434 0.121575,0.10093 0.210944,0.28585 0.267684,0.555 0.07295,0.37008 0.109554,1.18177 0.109554,2.43499 v 4.45348 c 0,0.71492 -0.05706,1.19875 -0.170532,1.45107 -0.105368,0.25233 -0.25128,0.43327 -0.437699,0.54261 -0.186421,0.10934 -0.550941,0.16381 -1.093991,0.16381 v 0.45424 h 5.410004 v -0.45424 c -0.52684,0 -0.89136,-0.059 -1.09399,-0.17673 -0.19452,-0.11776 -0.34473,-0.29418 -0.4501,-0.52969 -0.0973,-0.24391 -0.145727,-0.72773 -0.145727,-1.45107 v -9.28574 z m 15.555118,0 -3.35535,1.41335 0.17002,0.45424 c 0.3242,-0.12616 0.59987,-0.18966 0.82682,-0.18966 0.21074,0 0.3771,0.055 0.49868,0.16434 0.12157,0.10093 0.21043,0.28585 0.26717,0.555 0.073,0.37008 0.10955,1.18177 0.10955,2.43499 v 4.45348 c 0,0.71492 -0.0565,1.19875 -0.17002,1.45107 -0.10536,0.25233 -0.25127,0.43327 -0.43769,0.54261 -0.18642,0.10934 -0.55146,0.16381 -1.09451,0.16381 v 0.45424 h 5.41052 v -0.45424 c -0.52684,0 -0.89188,-0.059 -1.09451,-0.17673 -0.19452,-0.11776 -0.34421,-0.29418 -0.44958,-0.52969 -0.0973,-0.24391 -0.14625,-0.72773 -0.14625,-1.45107 v -9.28574 z m 9.16999,0 c -1.45895,0 -2.71131,0.56778 -3.75688,1.70326 -1.03746,1.13547 -1.55649,2.61191 -1.55649,4.42867 0,1.87563 0.47056,3.36405 1.41076,4.46587 0.94021,1.10183 2.04237,1.65262 3.30678,1.65262 1.06178,0 2.0304,-0.40785 2.90576,-1.2237 0.87536,-0.82427 1.46279,-1.99731 1.76269,-3.51968 l -0.35244,-0.17674 c -0.42146,1.01772 -0.85542,1.71995 -1.30121,2.10685 -0.6322,0.56353 -1.34509,0.84543 -2.1394,0.84543 -1.11042,0 -1.99397,-0.52581 -2.65049,-1.57717 -0.64842,-1.05977 -0.97255,-2.2793 -0.97255,-3.65869 0,-1.35415 0.32792,-2.44324 0.98444,-3.2675 0.49442,-0.62241 1.14698,-0.93379 1.9575,-0.93379 0.50253,0 0.89558,0.12646 1.17926,0.37879 0.2837,0.26073 0.44576,0.63908 0.48627,1.13533 0.0486,0.49624 0.1423,0.83261 0.28009,1.00924 0.24315,0.31961 0.60337,0.47955 1.08159,0.47955 0.35663,0 0.63229,-0.097 0.82682,-0.29042 0.20263,-0.20186 0.30386,-0.46276 0.30386,-0.78238 0,-0.64764 -0.35215,-1.2699 -1.0573,-1.86707 -0.70516,-0.60558 -1.60486,-0.90847 -2.69906,-0.90847 z m 10.44587,0 c -1.28873,0 -2.28966,0.30289 -3.00292,0.90847 -0.71326,0.60558 -1.0697,1.27034 -1.0697,1.99368 0,0.37849 0.0932,0.67687 0.27957,0.89555 0.19453,0.21869 0.44167,0.32815 0.74156,0.32815 0.308,0 0.55514,-0.10548 0.74155,-0.31575 0.19453,-0.21027 0.29198,-0.50865 0.29198,-0.89555 l -0.0243,-0.73174 c 0,-0.37008 0.15399,-0.69795 0.46199,-0.98392 0.29989,-0.28597 0.70531,-0.42891 1.21594,-0.42891 0.67273,0 1.18317,0.21442 1.53169,0.64337 0.35663,0.42896 0.53485,1.21966 0.53485,2.37195 v 0.45423 c -1.91283,0.72334 -3.28257,1.3371 -4.10931,1.84175 -0.81862,0.50466 -1.3942,1.04295 -1.72651,1.61489 -0.24315,0.41213 -0.36483,0.89995 -0.36483,1.46348 0,0.89156 0.24765,1.61078 0.74207,2.15749 0.50253,0.54671 1.13842,0.8201 1.90841,0.8201 0.49442,0 0.96068,-0.10547 1.39837,-0.31574 0.29178,-0.14299 1.00897,-0.67278 2.1518,-1.58957 0.008,0.6897 0.12978,1.17751 0.36484,1.46348 0.23505,0.28597 0.5511,0.42892 0.94826,0.42892 0.82673,0 1.69412,-0.63076 2.60191,-1.8924 v -0.70641 c -0.48632,0.50465 -0.81475,0.81153 -0.98495,0.92087 -0.0973,0.0589 -0.21087,0.0884 -0.34055,0.0884 -0.12158,0 -0.23088,-0.042 -0.32815,-0.12609 -0.0892,-0.0841 -0.15379,-0.24805 -0.1943,-0.49196 -0.0405,-0.25233 -0.061,-0.92958 -0.061,-2.0314 v -3.92379 c 0,-1.11865 -0.0727,-1.85835 -0.21859,-2.22002 -0.22695,-0.55512 -0.57961,-0.96348 -1.05782,-1.22422 -0.63221,-0.34484 -1.44306,-0.51728 -2.43189,-0.51728 z m 9.34,0 -3.35535,1.41335 0.18242,0.45424 c 0.3161,-0.12616 0.58747,-0.18966 0.81442,-0.18966 0.21073,0 0.3771,0.055 0.49867,0.16434 0.12969,0.10934 0.22283,0.31525 0.27957,0.61805 0.0649,0.30279 0.0972,1.14797 0.0972,2.53576 v 4.28966 c 0,0.84109 -0.10123,1.41286 -0.30386,1.71566 -0.19453,0.29437 -0.57572,0.44183 -1.14308,0.44183 h -0.24288 v 0.45424 h 5.50715 v -0.45424 c -0.60789,0 -1.0128,-0.0545 -1.21543,-0.16381 -0.19452,-0.11776 -0.34851,-0.29869 -0.46198,-0.54261 -0.0892,-0.18504 -0.13385,-0.66886 -0.13385,-1.45107 v -6.09369 c 0.95642,-1.09341 1.91696,-1.64021 2.88148,-1.64021 0.6241,0 1.06562,0.23992 1.32499,0.71934 0.26747,0.47101 0.40152,1.23222 0.40152,2.28358 v 4.73098 c 0,0.66446 -0.0167,1.05981 -0.0491,1.18597 -0.0811,0.31962 -0.22645,0.56353 -0.43718,0.73174 -0.20264,0.15981 -0.56337,0.23978 -1.08211,0.23978 h -0.23099 v 0.45424 h 5.50716 v -0.45424 c -0.53495,0 -0.90377,-0.059 -1.1064,-0.17673 -0.19452,-0.11776 -0.33613,-0.28169 -0.42529,-0.49196 -0.11348,-0.26075 -0.17002,-0.75705 -0.17002,-1.4888 v -4.93303 c 0,-1.04295 -0.0894,-1.81665 -0.26768,-2.32131 -0.25936,-0.72334 -0.60773,-1.24064 -1.04542,-1.55184 -0.43768,-0.31962 -0.96049,-0.47956 -1.56838,-0.47956 -1.18336,0 -2.42764,0.8162 -3.73259,2.44791 v -2.44791 z m 27.96832,0 c -0.924,0 -1.79895,0.25241 -2.62568,0.75706 -0.82674,0.49624 -1.49545,1.26994 -2.00608,2.32131 -0.50253,1.04294 -0.75396,2.09455 -0.75396,3.15432 0,1.45509 0.41728,2.76708 1.25212,3.9362 0.98884,1.3878 2.3225,2.08153 4.00027,2.08153 1.02936,0 1.96138,-0.26889 2.79621,-0.80719 0.84295,-0.5383 1.50359,-1.3375 1.9818,-2.39727 0.4782,-1.05978 0.71726,-2.10687 0.71726,-3.14141 0,-1.47191 -0.43395,-2.7754 -1.30121,-3.91087 -1.02125,-1.32892 -2.37485,-1.99368 -4.06073,-1.99368 z m 19.02054,0 c -0.92399,0 -1.79946,0.25241 -2.62619,0.75706 -0.82674,0.49624 -1.49546,1.26994 -2.00608,2.32131 -0.50253,1.04294 -0.75396,2.09455 -0.75396,3.15432 0,1.45509 0.41779,2.76708 1.25263,3.9362 0.98884,1.3878 2.32198,2.08153 3.99976,2.08153 1.02936,0 1.96138,-0.26889 2.79621,-0.80719 0.84294,-0.5383 1.50358,-1.3375 1.98179,-2.39727 0.47821,-1.05978 0.71727,-2.10687 0.71727,-3.14141 0,-1.47191 -0.43344,-2.7754 -1.30069,-3.91087 -1.02126,-1.32892 -2.37485,-1.99368 -4.06074,-1.99368 z m 57.12158,0 -3.36775,1.41335 0.12144,0.45424 c 0.3161,-0.12616 0.59984,-0.18966 0.85111,-0.18966 0.21073,0 0.38518,0.059 0.52296,0.17674 0.1459,0.11775 0.24283,0.30719 0.29146,0.56792 0.0567,0.25233 0.0853,1.05153 0.0853,2.39727 v 4.4788 c 0,0.67286 -0.0205,1.08071 -0.061,1.2237 -0.0811,0.29437 -0.22267,0.50879 -0.4253,0.64337 -0.27558,0.18504 -0.69716,0.2775 -1.26452,0.2775 v 0.45424 h 5.70197 v -0.45424 c -0.50252,0 -0.88749,-0.0755 -1.15496,-0.22686 -0.26748,-0.1514 -0.45378,-0.34083 -0.55914,-0.56792 -0.15401,-0.32803 -0.231,-0.81186 -0.231,-1.45108 v -5.53868 c 0.38905,-0.79062 0.76594,-1.35789 1.13068,-1.70274 0.17021,-0.16821 0.32798,-0.25269 0.47388,-0.25269 0.1702,0 0.42971,0.14745 0.77824,0.44183 0.35663,0.28597 0.67699,0.42891 0.96067,0.42891 0.29179,0 0.5427,-0.11345 0.75344,-0.34054 0.21074,-0.2271 0.31626,-0.50501 0.31626,-0.83303 0,-0.37008 -0.14591,-0.69396 -0.4377,-0.97152 -0.29179,-0.28597 -0.66061,-0.42891 -1.10639,-0.42891 -0.98073,0 -1.93697,0.86668 -2.86908,2.59933 v -2.59933 z m 11.16366,0 c -0.924,0 -1.79947,0.25241 -2.6262,0.75706 -0.82673,0.49624 -1.49545,1.26994 -2.00608,2.32131 -0.50252,1.04294 -0.75395,2.09455 -0.75395,3.15432 0,1.45509 0.41728,2.76708 1.25212,3.9362 0.98883,1.3878 2.32249,2.08153 4.00027,2.08153 1.02936,0 1.96137,-0.26889 2.79621,-0.80719 0.84294,-0.5383 1.50358,-1.3375 1.98179,-2.39727 0.47821,-1.05978 0.71727,-2.10687 0.71727,-3.14141 0,-1.47191 -0.43344,-2.7754 -1.3007,-3.91087 -1.02126,-1.32892 -2.37485,-1.99368 -4.06073,-1.99368 z m -47.00127,0.34106 v 0.46664 c 0.58358,-0.008 0.98523,0.0461 1.20407,0.16382 0.22694,0.10934 0.39708,0.26929 0.51056,0.47955 0.11347,0.21027 0.17001,0.58862 0.17001,1.13534 v 5.1604 c 0,1.0766 0.0894,1.90928 0.26769,2.49804 0.17831,0.58876 0.49437,1.07207 0.94826,1.45056 0.462,0.37008 1.00474,0.55501 1.62884,0.55501 0.55926,0 1.09014,-0.13844 1.59267,-0.416 0.50252,-0.27756 1.23208,-0.9548 2.1885,-2.0314 v 2.4474 h 0.54725 l 3.33106,-1.42524 -0.17001,-0.44183 c -0.31611,0.14299 -0.59985,0.21445 -0.85111,0.21445 -0.17832,0 -0.33609,-0.059 -0.47388,-0.17673 -0.12967,-0.11775 -0.22711,-0.32366 -0.29197,-0.61805 -0.0567,-0.30279 -0.0853,-1.12298 -0.0853,-2.46032 v -7.00164 h -3.79305 v 0.46664 c 0.72947,0.0168 1.2076,0.14277 1.43454,0.37827 0.23506,0.2271 0.35244,0.66894 0.35244,1.32499 v 6.54792 c -0.6079,0.63923 -1.13448,1.07205 -1.58027,1.29914 -0.43768,0.2271 -0.83073,0.34107 -1.17926,0.34107 -0.51062,0 -0.94835,-0.16844 -1.31309,-0.50488 -0.35663,-0.33644 -0.53485,-1.04317 -0.53485,-2.11977 v -7.73338 z m 19.71353,0 v 0.46664 c 0.58358,-0.008 0.98471,0.0461 1.20354,0.16382 0.22695,0.10934 0.39709,0.26929 0.51057,0.47955 0.11347,0.21027 0.17053,0.58862 0.17053,1.13534 v 5.1604 c 0,1.0766 0.0889,1.90928 0.26717,2.49804 0.17831,0.58876 0.49437,1.07207 0.94826,1.45056 0.462,0.37008 1.00526,0.55501 1.62936,0.55501 0.55926,0 1.09014,-0.13844 1.59266,-0.416 0.50253,-0.27756 1.23209,-0.9548 2.1885,-2.0314 v 2.4474 h 0.54674 l 3.33158,-1.42524 -0.17053,-0.44183 c -0.31611,0.14299 -0.59934,0.21445 -0.8506,0.21445 -0.17831,0 -0.3366,-0.059 -0.47439,-0.17673 -0.12967,-0.11775 -0.22712,-0.32366 -0.29197,-0.61805 -0.0567,-0.30279 -0.0847,-1.12298 -0.0847,-2.46032 v -7.00164 h -3.79357 v 0.46664 c 0.72948,0.0168 1.20759,0.14277 1.43454,0.37827 0.23505,0.2271 0.35295,0.66894 0.35295,1.32499 v 6.54792 c -0.60789,0.63923 -1.135,1.07205 -1.58078,1.29914 -0.43768,0.2271 -0.83073,0.34107 -1.17926,0.34107 -0.51063,0 -0.94836,-0.16844 -1.3131,-0.50488 -0.35663,-0.33644 -0.53485,-1.04317 -0.53485,-2.11977 v -7.73338 z m -143.138032,0.42892 c 0.380945,0 0.769698,0.12195 1.166853,0.36587 0.405261,0.2355 0.729394,0.58835 0.972551,1.05937 0.243156,0.47101 0.389068,0.99282 0.437699,1.56476 v 5.95467 c -0.688943,0.76539 -1.401829,1.14825 -2.139404,1.14825 -0.875364,0 -1.670058,-0.44982 -2.383317,-1.34979 -0.71326,-0.90837 -1.069702,-2.21239 -1.069702,-3.91138 0,-1.68218 0.368817,-2.96069 1.106392,-3.83543 0.55926,-0.66446 1.195669,-0.99632 1.908928,-0.99632 z m 70.339372,0 c 0.38095,0 0.77022,0.12195 1.16737,0.36587 0.40527,0.2355 0.7294,0.58835 0.97255,1.05937 0.24317,0.47101 0.38908,0.99282 0.4377,1.56476 v 5.95467 c -0.68895,0.76539 -1.40234,1.14825 -2.13992,1.14825 -0.87536,0 -1.66954,-0.44982 -2.3828,-1.34979 -0.71326,-0.90837 -1.0697,-2.21239 -1.0697,-3.91138 0,-1.68218 0.36881,-2.96069 1.10639,-3.83543 0.55926,-0.66446 1.19516,-0.99632 1.90841,-0.99632 z m -83.180966,0.0501 c 0.891574,0 1.625429,0.40384 2.200899,1.21129 0.851048,1.17752 1.276408,2.79241 1.276408,4.84467 0,1.64012 -0.255215,2.79668 -0.765844,3.46955 -0.510629,0.67287 -1.159412,1.00924 -1.945618,1.00924 -1.053678,0 -1.904398,-0.60976 -2.552816,-1.82934 -0.640312,-1.21958 -0.960665,-2.67052 -0.960665,-4.35271 0,-1.04295 0.133538,-1.89662 0.401009,-2.56108 0.267473,-0.66447 0.616355,-1.12678 1.045931,-1.38751 0.437682,-0.26915 0.87112,-0.40411 1.300696,-0.40411 z m 95.584866,0 c 0.89157,0 1.62491,0.40384 2.20038,1.21129 0.85105,1.17752 1.27692,2.79241 1.27692,4.84467 0,1.64012 -0.25521,2.79668 -0.76584,3.46955 -0.51063,0.67287 -1.15941,1.00924 -1.94562,1.00924 -1.05368,0 -1.9044,-0.60976 -2.55281,-1.82934 -0.64032,-1.21958 -0.96067,-2.67052 -0.96067,-4.35271 0,-1.04295 0.13353,-1.89662 0.40101,-2.56108 0.26747,-0.66447 0.61636,-1.12678 1.04593,-1.38751 0.43768,-0.26915 0.87112,-0.40411 1.3007,-0.40411 z m 19.02054,0 c 0.89157,0 1.62491,0.40384 2.20038,1.21129 0.85105,1.17752 1.27641,2.79241 1.27641,4.84467 0,1.64012 -0.25521,2.79668 -0.76584,3.46955 -0.51063,0.67287 -1.1589,1.00924 -1.9451,1.00924 -1.05368,0 -1.90492,-0.60976 -2.55334,-1.82934 -0.64031,-1.21958 -0.96066,-2.67052 -0.96066,-4.35271 0,-1.04295 0.13405,-1.89662 0.40152,-2.56108 0.26747,-0.66447 0.61584,-1.12678 1.04542,-1.38751 0.43768,-0.26915 0.87164,-0.40411 1.30121,-0.40411 z m 68.28472,0 c 0.89158,0 1.62543,0.40384 2.2009,1.21129 0.85105,1.17752 1.27641,2.79241 1.27641,4.84467 0,1.64012 -0.25522,2.79668 -0.76585,3.46955 -0.51062,0.67287 -1.15941,1.00924 -1.94561,1.00924 -1.05369,0 -1.90441,-0.60976 -2.55282,-1.82934 -0.64032,-1.21958 -0.96066,-2.67052 -0.96066,-4.35271 0,-1.04295 0.13405,-1.89662 0.40152,-2.56108 0.26747,-0.66447 0.61584,-1.12678 1.04542,-1.38751 0.43768,-0.26915 0.87112,-0.40411 1.30069,-0.40411 z m -205.800872,0.063 c 0.437682,0 0.854964,0.13496 1.25212,0.40411 0.405261,0.26914 0.709458,0.639 0.912089,1.11001 0.129687,0.30279 0.214758,0.82408 0.255281,1.56425 h -5.154724 c 0.08916,-0.96726 0.397135,-1.71997 0.923975,-2.25826 0.534944,-0.54671 1.138526,-0.82011 1.811259,-0.82011 z m 83.266232,4.12585 v 4.40283 c -1.00505,0.84109 -1.81538,1.26194 -2.43137,1.26194 -0.4539,0 -0.85503,-0.19793 -1.20355,-0.59325 -0.34853,-0.40372 -0.52296,-0.90802 -0.52296,-1.5136 0,-0.47943 0.13783,-0.92127 0.41341,-1.32498 0.27558,-0.40373 0.73325,-0.79058 1.37356,-1.16066 0.35663,-0.21027 1.14702,-0.56763 2.37091,-1.07228 z" />
      <path
         id="text5"
         style="-inkscape-font-specification:'Times New Roman, ';fill:#fe0000;stroke-width:0.264583;stroke-linecap:square"
         d="m 263.17722,212.14002 -9.13433,26.9751 h 1.48828 l 9.13433,-26.9751 z m -29.14654,1.90686 c -0.5085,1.25264 -0.90538,2.11461 -1.19063,2.58589 -0.55811,0.89298 -1.19683,1.66812 -1.91616,2.32544 -0.70693,0.64492 -1.40147,1.10381 -2.08359,1.37666 v 0.61392 h 2.69751 v 11.45976 c 0,1.22784 0.13022,2.13941 0.39067,2.73472 0.26045,0.58291 0.66352,1.03559 1.20923,1.35806 0.5457,0.31005 1.10381,0.46508 1.67431,0.46508 0.84336,0 1.66191,-0.30385 2.45567,-0.91157 0.79374,-0.62011 1.40766,-1.53788 1.84175,-2.75332 h -0.72554 c -0.21084,0.4961 -0.5085,0.87436 -0.89297,1.13482 -0.38447,0.24804 -0.78135,0.37207 -1.19062,0.37207 -0.4961,0 -0.90537,-0.19224 -1.22784,-0.57671 -0.31005,-0.38448 -0.46508,-1.12862 -0.46508,-2.23242 v -11.05049 h 3.98115 v -1.30225 h -3.98115 v -5.59966 z m -116.70347,2.41846 -20.017387,8.66924 v 0.91157 l 20.017387,8.74365 v -1.67431 l -17.22686,-7.55303 17.22686,-7.47861 z m 148.19818,0.32556 v 1.69292 l 17.24546,7.55303 -17.24546,7.47861 v 1.5999 l 20.01739,-8.66923 v -0.91158 z m -62.12437,2.33474 c -2.25723,0 -4.13618,0.81855 -5.63686,2.45567 -1.48828,1.6247 -2.23243,3.89434 -2.23243,6.80888 0,2.69132 0.72554,4.83692 2.17662,6.43682 1.46347,1.5875 3.2184,2.38125 5.26479,2.38125 1.88516,0 3.45406,-0.69453 4.70669,-2.08359 1.25264,-1.40147 2.00918,-2.95176 2.26963,-4.65088 l -0.57671,-0.37207 c -0.55811,1.48828 -1.25264,2.54248 -2.08359,3.16259 -0.81856,0.60772 -1.78594,0.91158 -2.90215,0.91158 -1.67432,0 -3.1316,-0.71934 -4.37183,-2.15801 -1.24023,-1.43867 -1.85415,-3.42305 -1.84175,-5.95313 h 11.77603 c 0,-2.10839 -0.61392,-3.78891 -1.84175,-5.04155 -1.22783,-1.26504 -2.79673,-1.89756 -4.70669,-1.89756 z m -74.9701,0.0186 c -2.23242,0 -4.14859,0.83716 -5.74849,2.51147 -1.5875,1.67432 -2.38125,3.85094 -2.38125,6.52984 0,2.76572 0.71934,4.96093 2.15801,6.58564 1.43867,1.62471 3.12539,2.43706 5.06016,2.43706 1.6247,0 3.10679,-0.60151 4.44624,-1.80454 1.33945,-1.21543 2.23862,-2.94556 2.69751,-5.19038 l -0.5395,-0.26045 c -0.64492,1.50068 -1.30845,2.53627 -1.99058,3.10679 -0.96738,0.83095 -2.05879,1.24643 -3.27422,1.24643 -1.69913,0 -3.05098,-0.77514 -4.05557,-2.32544 -0.99218,-1.56269 -1.48828,-3.36103 -1.48828,-5.39502 0,-1.99677 0.5023,-3.60287 1.50689,-4.81831 0.75655,-0.91777 1.75493,-1.37666 2.99516,-1.37666 0.76895,0 1.37047,0.18603 1.80455,0.55811 0.43409,0.38447 0.68214,0.94258 0.74414,1.67431 0.0744,0.73174 0.21704,1.22783 0.42788,1.48829 0.37207,0.47128 0.92398,0.70693 1.65571,0.70693 0.54571,0 0.96739,-0.14263 1.26504,-0.42788 0.31006,-0.29766 0.46509,-0.68213 0.46509,-1.15342 0,-0.95498 -0.5395,-1.87275 -1.61851,-2.75332 -1.079,-0.89297 -2.45566,-1.33945 -4.12998,-1.33945 z m 17.2682,0 c -1.41387,0 -2.75332,0.37207 -4.01836,1.11621 -1.26504,0.73173 -2.28824,1.87275 -3.06958,3.42304 -0.76895,1.5379 -1.15342,3.08819 -1.15342,4.65088 0,2.14561 0.63872,4.08037 1.91616,5.8043 1.51308,2.04639 3.55327,3.06958 6.12056,3.06958 1.5751,0 3.00137,-0.39687 4.27881,-1.19062 1.28984,-0.79375 2.30064,-1.97198 3.03237,-3.53467 0.73174,-1.5627 1.09761,-3.10679 1.09761,-4.63228 0,-2.1704 -0.66353,-4.09277 -1.99058,-5.76709 -1.56269,-1.95956 -3.63389,-2.93935 -6.21357,-2.93935 z m 15.14739,0 -5.13457,2.08359 0.27906,0.66973 c 0.48369,-0.18604 0.89917,-0.27906 1.24643,-0.27906 0.32247,0 0.57671,0.0806 0.76274,0.24185 0.19844,0.16123 0.34107,0.46509 0.42789,0.91157 0.0992,0.44649 0.14882,1.69292 0.14882,3.73931 v 6.32519 c 0,1.24024 -0.15502,2.0836 -0.46508,2.53008 -0.29766,0.43408 -0.88057,0.65113 -1.74873,0.65113 H 155.991 v 0.66972 h 8.42739 v -0.66972 c -0.93018,0 -1.55029,-0.0806 -1.86035,-0.24185 -0.29766,-0.17363 -0.53331,-0.44029 -0.70694,-0.79995 -0.13642,-0.27286 -0.20464,-0.98599 -0.20464,-2.13941 v -8.98549 c 1.46348,-1.61231 2.93316,-2.41846 4.40904,-2.41846 0.95498,0 1.63091,0.35347 2.02778,1.0604 0.40928,0.69453 0.61392,1.81694 0.61392,3.36724 v 6.97631 c 0,0.97979 -0.0248,1.5627 -0.0744,1.74873 -0.12402,0.4713 -0.34726,0.83096 -0.66972,1.07901 -0.31006,0.23564 -0.86197,0.35347 -1.65572,0.35347 h -0.35346 v 0.66972 h 8.42739 v -0.66972 c -0.81855,0 -1.38286,-0.0868 -1.69292,-0.26045 -0.29765,-0.17364 -0.5147,-0.41548 -0.65112,-0.72554 -0.17364,-0.38447 -0.26045,-1.11621 -0.26045,-2.19522 v -7.27397 c 0,-1.53789 -0.13643,-2.67891 -0.40928,-3.42305 -0.39687,-1.0666 -0.93018,-1.82934 -1.5999,-2.28823 -0.66973,-0.47129 -1.46968,-0.70693 -2.39986,-0.70693 -1.81074,0 -3.7145,1.20303 -5.71128,3.60908 v -3.60908 z m 19.31459,0 -5.13457,2.08359 0.27905,0.66973 c 0.48369,-0.18604 0.89917,-0.27906 1.24643,-0.27906 0.32246,0 0.57671,0.0806 0.76275,0.24185 0.19844,0.16123 0.34107,0.46509 0.42788,0.91157 0.0992,0.44649 0.14883,1.69292 0.14883,3.73931 v 6.32519 c 0,1.24024 -0.15503,2.0836 -0.46509,2.53008 -0.29765,0.43408 -0.88056,0.65113 -1.74873,0.65113 h -0.37207 v 0.66972 h 8.42739 v -0.66972 c -0.93017,0 -1.55029,-0.0806 -1.86035,-0.24185 -0.29765,-0.17363 -0.5333,-0.44029 -0.70693,-0.79995 -0.13643,-0.27286 -0.20464,-0.98599 -0.20464,-2.13941 v -8.98549 c 1.46347,-1.61231 2.93315,-2.41846 4.40903,-2.41846 0.95498,0 1.6309,0.35347 2.02778,1.0604 0.40928,0.69453 0.61392,1.81694 0.61392,3.36724 v 6.97631 c 0,0.97979 -0.0248,1.5627 -0.0744,1.74873 -0.12403,0.4713 -0.34727,0.83096 -0.66973,1.07901 -0.31006,0.23564 -0.86197,0.35347 -1.65571,0.35347 h -0.35347 v 0.66972 h 8.42739 v -0.66972 c -0.81855,0 -1.38286,-0.0868 -1.69292,-0.26045 -0.29765,-0.17364 -0.51469,-0.41548 -0.65112,-0.72554 -0.17363,-0.38447 -0.26045,-1.11621 -0.26045,-2.19522 v -7.27397 c 0,-1.53789 -0.13642,-2.67891 -0.40928,-3.42305 -0.39687,-1.0666 -0.93017,-1.82934 -1.5999,-2.28823 -0.66973,-0.47129 -1.46968,-0.70693 -2.39985,-0.70693 -1.81074,0 -3.7145,1.20303 -5.71128,3.60908 v -3.60908 z m 40.56393,0 c -2.23242,0 -4.14858,0.83716 -5.74849,2.51147 -1.5875,1.67432 -2.38125,3.85094 -2.38125,6.52984 0,2.76572 0.71934,4.96093 2.15801,6.58564 1.43867,1.62471 3.12539,2.43706 5.06016,2.43706 1.6247,0 3.10678,-0.60151 4.44624,-1.80454 1.33945,-1.21543 2.23862,-2.94556 2.69751,-5.19038 l -0.53951,-0.26045 c -0.64492,1.50068 -1.30845,2.53627 -1.99057,3.10679 -0.96738,0.83095 -2.05879,1.24643 -3.27422,1.24643 -1.69912,0 -3.05097,-0.77514 -4.05557,-2.32544 -0.99218,-1.56269 -1.48828,-3.36103 -1.48828,-5.39502 0,-1.99677 0.50229,-3.60287 1.50689,-4.81831 0.75654,-0.91777 1.75493,-1.37666 2.99516,-1.37666 0.76895,0 1.37046,0.18603 1.80454,0.55811 0.4341,0.38447 0.68214,0.94258 0.74414,1.67431 0.0744,0.73174 0.21704,1.22783 0.42788,1.48829 0.37207,0.47128 0.92398,0.70693 1.65572,0.70693 0.5457,0 0.96738,-0.14263 1.26504,-0.42788 0.31006,-0.29766 0.46508,-0.68213 0.46508,-1.15342 0,-0.95498 -0.53949,-1.87275 -1.6185,-2.75332 -1.07901,-0.89297 -2.45567,-1.33945 -4.12998,-1.33945 z m -75.60262,1.20922 c 1.36426,0 2.48667,0.59532 3.36723,1.78594 1.30225,1.73633 1.95337,4.11758 1.95337,7.14375 0,2.41846 -0.39067,4.12378 -1.17202,5.11597 -0.78135,0.99219 -1.77353,1.48828 -2.97656,1.48828 -1.6123,0 -2.91455,-0.89917 -3.90674,-2.69751 -0.97978,-1.79834 -1.46968,-3.93775 -1.46968,-6.41821 0,-1.5379 0.20465,-2.79673 0.61392,-3.77652 0.40928,-0.97978 0.94258,-1.66191 1.5999,-2.04638 0.66973,-0.39688 1.33326,-0.59532 1.99058,-0.59532 z m 57.23681,0.093 c 0.66973,0 1.30845,0.19844 1.91617,0.59532 0.62011,0.39687 1.0852,0.94258 1.39526,1.6371 0.19845,0.44649 0.32867,1.21543 0.39067,2.30684 h -7.88789 c 0.13642,-1.42627 0.60772,-2.53628 1.41387,-3.33003 0.81855,-0.80615 1.74252,-1.20923 2.77192,-1.20923 z" />
    </g>
  </g>
</svg>
